<?xml version="1.0" encoding="UTF-8"?>
<svg version="1.1" xmlns="http://www.w3.org/2000/svg" width="1000" height="868">
<path d="M0 0 C1.22283691 -0.00918457 2.44567383 -0.01836914 3.70556641 -0.02783203 C13.94975824 0.00672536 23.5120772 1.20726946 33.3125 4.25 C34.63250172 4.61269268 35.95420978 4.96921844 37.27734375 5.3203125 C38.25864258 5.58134766 38.25864258 5.58134766 39.25976562 5.84765625 C39.91654297 6.02167969 40.57332031 6.19570313 41.25 6.375 C41.93384766 6.55675781 42.61769531 6.73851562 43.32226562 6.92578125 C44.9855235 7.36776586 46.6489897 7.80896638 48.3125 8.25 C48.3125 8.91 48.3125 9.57 48.3125 10.25 C52.7675 11.24 52.7675 11.24 57.3125 12.25 C57.3125 12.91 57.3125 13.57 57.3125 14.25 C58.01761719 14.35183594 58.72273437 14.45367187 59.44921875 14.55859375 C62.72309645 15.34914812 65.19834467 16.65523734 68.125 18.3125 C69.10082031 18.86035156 70.07664062 19.40820312 71.08203125 19.97265625 C71.81808594 20.39417969 72.55414062 20.81570312 73.3125 21.25 C73.3125 21.91 73.3125 22.57 73.3125 23.25 C74.00859375 23.46785156 74.7046875 23.68570313 75.421875 23.91015625 C79.0467701 25.59034411 81.69110497 27.97337746 84.5625 30.6875 C85.13170166 31.22246094 85.70090332 31.75742188 86.28735352 32.30859375 C94.18429882 39.85938684 100.42625732 47.5494384 105.0234375 57.5234375 C106.26240699 60.28366455 106.26240699 60.28366455 107.93359375 62.83203125 C109.93173089 66.3358468 109.97450453 69.2616534 110.3125 73.25 C110.9725 73.25 111.6325 73.25 112.3125 73.25 C115.75669134 92.07004556 115.75669134 92.07004556 115.3125 101.25 C117.2925 100.59 119.2725 99.93 121.3125 99.25 C121.3125 98.59 121.3125 97.93 121.3125 97.25 C121.90675781 97.03085938 122.50101563 96.81171875 123.11328125 96.5859375 C127.92286204 94.74588015 132.44310589 92.70813222 136.9375 90.1875 C141.30846462 87.74074343 145.58686506 85.87021769 150.3125 84.25 C151.75068835 83.6892623 153.18819487 83.12677256 154.625 82.5625 C158.3125 81.25 158.3125 81.25 161.3125 81.25 C161.3125 80.59 161.3125 79.93 161.3125 79.25 C169.2188027 76.78092208 177.14572107 74.41611877 185.12109375 72.1796875 C187.23279197 71.56452939 189.33169179 70.90342345 191.4140625 70.1953125 C194.03465384 69.34061829 196.54226392 68.74151773 199.25 68.25 C202.06545339 67.73726703 204.71280458 67.12702086 207.453125 66.28515625 C212.30664014 64.9833531 217.14861676 64.33659347 222.125 63.6875 C224.00693204 63.43937509 225.88846833 63.18822381 227.76953125 62.93359375 C228.59428955 62.82587646 229.41904785 62.71815918 230.26879883 62.60717773 C232.37033871 62.34047695 232.37033871 62.34047695 234.3125 61.25 C242.05789113 60.25311002 249.84218117 60.10073854 257.640625 60.1171875 C258.67330505 60.11623077 259.70598511 60.11527405 260.7699585 60.11428833 C262.93794822 60.1136132 265.10594004 60.11542048 267.27392578 60.11962891 C270.54073782 60.12496446 273.80741102 60.1196723 277.07421875 60.11328125 C301.29910518 60.10453647 301.29910518 60.10453647 311.3125 61.25 C311.6425 61.58 311.9725 61.91 312.3125 62.25 C314.32082177 62.59620395 316.33887942 62.88624018 318.359375 63.15234375 C320.215625 63.40467773 320.215625 63.40467773 322.109375 63.66210938 C324.72892834 64.01026147 327.34871836 64.35663771 329.96875 64.70117188 C331.21140625 64.87068359 332.4540625 65.04019531 333.734375 65.21484375 C334.87487305 65.3655835 336.01537109 65.51632324 337.19042969 65.67163086 C340.14066443 66.21816715 342.5693073 67.06461078 345.3125 68.25 C346.92962453 68.60098362 348.55552242 68.91376574 350.1875 69.1875 C354.57313315 70.02592987 358.24639678 71.35715884 362.3125 73.25 C364.22831372 74.02295078 366.14507382 74.79355788 368.0625 75.5625 C374.06291148 78.05705309 379.66631969 81.04679635 385.3125 84.25 C386.45138672 84.86681641 386.45138672 84.86681641 387.61328125 85.49609375 C395.57882336 89.81135191 403.30458578 94.49147081 410.3125 100.25 C410.97894531 100.78882813 411.64539063 101.32765625 412.33203125 101.8828125 C412.92371094 102.37523437 413.51539063 102.86765625 414.125 103.375 C414.72957031 103.87257813 415.33414063 104.37015625 415.95703125 104.8828125 C417.3125 106.25 417.3125 106.25 417.3125 108.25 C417.91191406 108.51167969 418.51132812 108.77335937 419.12890625 109.04296875 C421.44311764 110.32220188 422.60909445 111.51250442 424.25 113.5625 C426.75503317 116.66762468 429.4828904 119.43715846 432.3125 122.25 C442.9568868 133.50724543 452.45660257 144.82818335 460.3125 158.25 C460.99054687 159.37921875 461.66859375 160.5084375 462.3671875 161.671875 C467.3125 169.97364458 467.3125 169.97364458 467.3125 172.25 C467.9725 172.25 468.6325 172.25 469.3125 172.25 C472.05640859 178.14174281 474.37625702 184.04522136 476.3125 190.25 C476.9725 190.25 477.6325 190.25 478.3125 190.25 C481.61130814 197.82558152 484.52066011 205.460911 487.16845703 213.28491211 C488.23491653 216.39353586 489.32341788 219.27127298 490.828125 222.203125 C492.71290664 226.07188731 493.81681758 229.98124215 494.9375 234.125 C495.26234375 235.27162109 495.26234375 235.27162109 495.59375 236.44140625 C496.95047663 241.37419628 497.79078927 246.16042195 498.3125 251.25 C498.9725 251.25 499.6325 251.25 500.3125 251.25 C503.20188925 264.80526528 505.78262266 278.30470739 507.41137695 292.07446289 C507.51796631 292.97543701 507.62455566 293.87641113 507.734375 294.8046875 C507.82299805 295.59343262 507.91162109 296.38217773 508.00292969 297.19482422 C508.28146397 299.44254938 508.28146397 299.44254938 509.3125 302.25 C511.41856209 317.29370735 511.60313108 332.50519999 511.54296875 347.6640625 C511.54177162 349.70429454 511.54132491 351.74452714 511.5415802 353.78475952 C511.54003627 358.00465476 511.53190028 362.22446263 511.51831055 366.44433594 C511.50112544 371.84756045 511.49750298 377.25069153 511.49825573 382.6539402 C511.49798417 386.84206022 511.4925084 391.0301599 511.48525429 395.21827316 C511.48208181 397.21255719 511.48010355 399.2068435 511.47936058 401.20112991 C511.47719303 403.97087826 511.46844548 406.74052699 511.45776367 409.51025391 C511.45821686 410.32576218 511.45867004 411.14127045 511.45913696 411.98149109 C511.43721298 415.86845515 511.21642843 419.46723929 510.3125 423.25 C510.19552661 424.82461642 510.11421193 426.40223738 510.06640625 427.98046875 C510.03353516 428.86669922 510.00066406 429.75292969 509.96679688 430.66601562 C509.90624935 432.49403569 509.8488868 434.3221644 509.79492188 436.15039062 C509.59000412 441.50531684 508.93459093 446.47926229 507.79614258 451.71118164 C506.93576297 456.22763169 506.69791638 460.79440015 506.375 465.375 C505.73697715 473.53986204 504.6930609 481.36379323 503.03515625 489.38671875 C502.09247145 494.42626076 501.53025373 499.47934105 501.046875 504.58154297 C500.6463926 508.49663623 499.81859201 511.63773245 498.3125 515.25 C497.94905541 517.30413498 497.63963404 519.36831385 497.375 521.4375 C496.65952974 526.44015821 495.5866955 531.04910688 494.03125 535.84765625 C493.06771007 539.06818372 492.48779917 542.31955291 491.9375 545.6328125 C491.24965394 548.51316788 490.21063651 551.18972617 489.14599609 553.94873047 C487.56674019 558.30903105 486.37193257 562.78567352 485.125 567.25 C484.85236328 568.21550781 484.57972656 569.18101562 484.29882812 570.17578125 C483.63366833 572.5330142 482.97163011 574.89107534 482.3125 577.25 C481.6525 577.25 480.9925 577.25 480.3125 577.25 C480.250625 578.3225 480.18875 579.395 480.125 580.5 C479.51572047 585.38281765 477.68561433 589.51505533 475.72265625 593.99609375 C473.40543045 599.34304414 471.37755074 604.80178104 469.3125 610.25 C468.6525 610.25 467.9925 610.25 467.3125 610.25 C467.2403125 611.06082031 467.168125 611.87164063 467.09375 612.70703125 C466.08572299 617.27843376 464.07804225 620.87285068 461.8125 624.9375 C460.98765617 626.44035013 460.16466036 627.94421642 459.34375 629.44921875 C458.97830078 630.10752686 458.61285156 630.76583496 458.23632812 631.4440918 C457.17937959 633.39848305 457.17937959 633.39848305 456.3125 636.25 C455.6525 636.25 454.9925 636.25 454.3125 636.25 C454.20679688 636.78753906 454.10109375 637.32507813 453.9921875 637.87890625 C453.13921164 640.85451745 451.83685261 643.42708553 450.4375 646.1875 C449.92445313 647.20714844 449.41140625 648.22679687 448.8828125 649.27734375 C447.44566773 651.99790885 445.91161256 654.62256293 444.3125 657.25 C443.63153578 658.57608822 442.95919414 659.90686601 442.3125 661.25 C441.6525 661.25 440.9925 661.25 440.3125 661.25 C440.04695312 662.13300781 439.78140625 663.01601563 439.5078125 663.92578125 C436.15792291 673.24197745 429.17877045 681.3721537 423.3125 689.25 C422.31235548 690.60796649 421.31236568 691.96604694 420.3125 693.32421875 C419.25048638 694.75817285 418.18798745 696.19176765 417.125 697.625 C416.37633667 698.64243286 416.37633667 698.64243286 415.61254883 699.68041992 C412.75042781 703.51736613 409.76368929 706.91440078 406.3125 710.25 C404.63542604 712.07381793 402.96883508 713.90732722 401.3125 715.75 C398.07160932 719.35549088 394.76015028 722.84171929 391.3125 726.25 C390.73886719 726.83523438 390.16523437 727.42046875 389.57421875 728.0234375 C385.95414588 731.70639005 382.21070671 735.18231861 378.29296875 738.546875 C376.99052922 739.66692161 375.70090752 740.80207934 374.42578125 741.953125 C371.21060023 744.82656227 368.52487726 746.97352204 364.3125 748.25 C364.3125 748.91 364.3125 749.57 364.3125 750.25 C362.29562422 751.65941913 360.29956667 752.93633007 358.1875 754.1875 C357.61773438 754.53490234 357.04796875 754.88230469 356.4609375 755.24023438 C346.50125059 761.25 346.50125059 761.25 343.3125 761.25 C343.3125 761.91 343.3125 762.57 343.3125 763.25 C341.25322044 764.23592155 339.18993312 765.21347494 337.125 766.1875 C335.40216797 767.00541016 335.40216797 767.00541016 333.64453125 767.83984375 C330.79783264 769.04460131 328.35222155 769.79776271 325.3125 770.25 C325.3125 770.91 325.3125 771.57 325.3125 772.25 C318.0805784 775.25796739 310.75920061 777.82880499 303.3125 780.25 C302.30445313 780.60578125 301.29640625 780.9615625 300.2578125 781.328125 C297.58253307 782.16548037 295.21850213 782.62218162 292.4375 782.875 C291.65632813 782.94976563 290.87515625 783.02453125 290.0703125 783.1015625 C289.49023438 783.15054688 288.91015625 783.19953125 288.3125 783.25 C288.3125 783.91 288.3125 784.57 288.3125 785.25 C287.62623535 785.36593506 286.9399707 785.48187012 286.23291016 785.60131836 C283.13387127 786.12675276 280.03568656 786.65706403 276.9375 787.1875 C275.85726563 787.36990234 274.77703125 787.55230469 273.6640625 787.74023438 C272.6328125 787.91748047 271.6015625 788.09472656 270.5390625 788.27734375 C269.58596191 788.43968506 268.63286133 788.60202637 267.65087891 788.76928711 C265.30333032 789.1471068 265.30333032 789.1471068 263.3125 790.25 C230.15061299 795.93948691 184.55236286 799.18522089 152.3125 788.25 C150.81014609 787.94650688 149.29892231 787.68286703 147.78125 787.46875 C146.56501953 787.28892578 146.56501953 787.28892578 145.32421875 787.10546875 C144.49535156 786.98816406 143.66648437 786.87085938 142.8125 786.75 C137.42274799 785.98722017 132.45685672 785.10497242 127.3125 783.25 C125.88062844 782.91264806 124.44313177 782.59786504 123 782.3125 C118.30144813 781.30510529 113.84299802 779.83646359 109.3125 778.25 C102.7132215 775.96745385 96.06513963 774.02966764 89.3125 772.25 C89.3125 771.59 89.3125 770.93 89.3125 770.25 C88.64863281 770.14042969 87.98476563 770.03085937 87.30078125 769.91796875 C82.31531171 769.02276765 78.57393584 768.09095722 74.3125 765.25 C72.32798229 764.53856912 70.33047888 763.86008664 68.3125 763.25 C68.3125 762.59 68.3125 761.93 68.3125 761.25 C67.03375 761.023125 65.755 760.79625 64.4375 760.5625 C58.92581172 759.36202099 54.23424841 756.94206281 49.3125 754.25 C49.3125 753.59 49.3125 752.93 49.3125 752.25 C47.0025 751.59 44.6925 750.93 42.3125 750.25 C42.3125 749.59 42.3125 748.93 42.3125 748.25 C37.8575 746.765 37.8575 746.765 33.3125 745.25 C33.3125 744.59 33.3125 743.93 33.3125 743.25 C31.6625 742.92 30.0125 742.59 28.3125 742.25 C27.91804688 743.10271484 27.91804688 743.10271484 27.515625 743.97265625 C24.06704923 750.50031754 19.14525893 755.81203125 13.3125 760.25 C12.55582031 760.88808594 11.79914063 761.52617188 11.01953125 762.18359375 C8.16854436 764.35988822 5.34040899 765.91825843 2.125 767.5 C1.07957031 768.02078125 0.03414062 768.5415625 -1.04296875 769.078125 C-3.6875 770.25 -3.6875 770.25 -5.6875 770.25 C-5.6875 770.91 -5.6875 771.57 -5.6875 772.25 C-6.79158203 772.54003906 -6.79158203 772.54003906 -7.91796875 772.8359375 C-8.89378906 773.09632813 -9.86960937 773.35671875 -10.875 773.625 C-11.83792969 773.88023437 -12.80085937 774.13546875 -13.79296875 774.3984375 C-16.6536183 775.18417199 -16.6536183 775.18417199 -19.17578125 776.28125 C-36.32454204 782.89539102 -63.99796642 781.40265725 -80.6875 774.25 C-83.34023485 773.49931288 -86.00090554 772.87367371 -88.6875 772.25 C-88.6875 771.59 -88.6875 770.93 -88.6875 770.25 C-91.3275 769.59 -93.9675 768.93 -96.6875 768.25 C-96.6875 767.59 -96.6875 766.93 -96.6875 766.25 C-97.574375 766.0025 -98.46125 765.755 -99.375 765.5 C-102.89956681 764.16997479 -104.86881179 762.72494574 -107.6875 760.25 C-108.30367188 759.74726562 -108.91984375 759.24453125 -109.5546875 758.7265625 C-110.19664062 758.19804688 -110.83859375 757.66953125 -111.5 757.125 C-112.40685547 756.37863281 -112.40685547 756.37863281 -113.33203125 755.6171875 C-114.6875 754.25 -114.6875 754.25 -114.6875 752.25 C-115.26242187 752.03214844 -115.83734375 751.81429687 -116.4296875 751.58984375 C-119.41625665 749.81753714 -120.8300279 747.65052564 -122.8125 744.8125 C-123.49570312 743.84441406 -124.17890625 742.87632812 -124.8828125 741.87890625 C-128.6875 736.33658009 -128.6875 736.33658009 -128.6875 733.25 C-129.3475 733.25 -130.0075 733.25 -130.6875 733.25 C-135.94315787 722.23063733 -140.17375254 711.24430037 -143.68359375 699.55859375 C-144.33931219 697.39752948 -145.01808054 695.24328869 -145.72265625 693.09765625 C-148.09954683 685.78623239 -149.71235307 678.53299074 -151.03125 670.9765625 C-151.56515579 667.94474033 -152.16310163 664.94574244 -152.8125 661.9375 C-153.87319349 656.74894102 -154.30631485 651.52640497 -154.6875 646.25 C-155.3475 646.25 -156.0075 646.25 -156.6875 646.25 C-156.80343506 644.97882324 -156.91937012 643.70764648 -157.03881836 642.39794922 C-157.47081927 637.66776141 -157.90575025 632.93784676 -158.34155273 628.20800781 C-158.52952324 626.16348449 -158.71670622 624.1188886 -158.90307617 622.07421875 C-159.17157748 619.13001237 -159.4429389 616.18608126 -159.71484375 613.2421875 C-159.79717758 612.3325827 -159.87951141 611.42297791 -159.96434021 610.48580933 C-160.28743803 607.01105896 -160.62989101 603.58765931 -161.21704102 600.14624023 C-161.82325649 596.41425571 -162.01123662 592.68904778 -162.1875 588.91796875 C-162.22778824 588.1044696 -162.26807648 587.29097046 -162.30958557 586.45281982 C-162.4398757 583.78123418 -162.56402675 581.10940879 -162.6875 578.4375 C-162.73107635 577.52380646 -162.77465271 576.61011292 -162.81954956 575.66873169 C-163.59266199 559.3802844 -164.06041236 543.09179849 -164.34570312 526.7878418 C-164.37010719 525.53164032 -164.37010719 525.53164032 -164.39500427 524.25006104 C-164.42521831 522.68067966 -164.45135761 521.11121283 -164.47279358 519.54168701 C-164.23727105 516.10514157 -164.23727105 516.10514157 -165.6875 513.25 C-165.78733058 511.26242972 -165.81830753 509.2713248 -165.8203125 507.28125 C-165.82160156 506.07082031 -165.82289063 504.86039063 -165.82421875 503.61328125 C-165.82035156 502.33839844 -165.81648438 501.06351563 -165.8125 499.75 C-165.81636719 498.47511719 -165.82023437 497.20023438 -165.82421875 495.88671875 C-165.82292969 494.67628906 -165.82164062 493.46585938 -165.8203125 492.21875 C-165.81918457 491.09919922 -165.81805664 489.97964844 -165.81689453 488.82617188 C-165.6875 486.25 -165.6875 486.25 -164.6875 485.25 C-164.39175855 480.22239528 -164.4399553 475.16348885 -165.25 470.1875 C-165.6875 467.25 -165.6875 467.25 -164.6875 465.25 C-164.54349965 463.28363446 -164.46072497 461.31267536 -164.40625 459.34179688 C-164.36951172 458.09869751 -164.33277344 456.85559814 -164.29492188 455.5748291 C-164.25909347 454.20613662 -164.22328677 452.83744357 -164.1875 451.46875 C-164.14696147 450.05739995 -164.10593798 448.64606376 -164.06445312 447.23474121 C-163.95566674 443.50004336 -163.85208802 439.76522079 -163.75 436.03033447 C-162.44759029 388.51145828 -162.44759029 388.51145828 -160.45899963 370.67410278 C-159.25693068 359.69652115 -158.63998218 348.67167915 -157.93481445 337.65332031 C-157.7507123 334.79726188 -157.56115586 331.94160449 -157.37109375 329.0859375 C-157.31690781 328.21013031 -157.26272186 327.33432312 -157.20689392 326.43197632 C-156.80053713 320.36303713 -156.80053713 320.36303713 -155.6875 319.25 C-155.42259619 317.25848422 -155.21843403 315.25884598 -155.0390625 313.2578125 C-154.92232178 312.00444092 -154.80558105 310.75106934 -154.68530273 309.4597168 C-154.62462616 308.79289886 -154.56394958 308.12608093 -154.50143433 307.4390564 C-153.5592141 297.14555538 -152.48433352 286.91436417 -150.74707031 276.71972656 C-149.71491839 270.63906497 -148.9681143 264.54738117 -148.33374023 258.4128418 C-147.78971177 253.35221177 -147.78971177 253.35221177 -146.6875 252.25 C-146.42538074 250.69978393 -146.2198441 249.13991704 -146.0390625 247.578125 C-145.92232178 246.60979736 -145.80558105 245.64146973 -145.68530273 244.64379883 C-145.56227783 243.60634521 -145.43925293 242.5688916 -145.3125 241.5 C-144.37075815 233.893175 -143.25519188 226.53028978 -141.375 219.09765625 C-140.4106641 215.10333312 -139.79477854 211.07199011 -139.15234375 207.015625 C-138.61936768 203.84464131 -137.91730893 200.73566485 -137.1875 197.60546875 C-136.38220248 193.81176245 -135.82491625 189.97901728 -135.25 186.14453125 C-134.6875 183.25 -134.6875 183.25 -133.76025391 180.55688477 C-132.57225503 176.89474439 -131.73899603 173.20972416 -130.9609375 169.4453125 C-130.80839508 168.7213327 -130.65585266 167.99735291 -130.49868774 167.25143433 C-130.0166597 164.95996718 -129.5395055 162.66751735 -129.0625 160.375 C-128.73469765 158.81243228 -128.40657585 157.24993154 -128.078125 155.6875 C-127.2775537 151.87576462 -126.48134908 148.06314079 -125.6875 144.25 C-125.0275 144.25 -124.3675 144.25 -123.6875 144.25 C-123.5740625 143.12980469 -123.460625 142.00960937 -123.34375 140.85546875 C-122.73172335 135.96248807 -121.49847071 131.30821395 -120.1875 126.5625 C-118.22528836 119.45653484 -118.22528836 119.45653484 -116.6875 112.25 C-116.0275 112.25 -115.3675 112.25 -114.6875 112.25 C-114.57792969 111.4765625 -114.46835937 110.703125 -114.35546875 109.90625 C-113.53610809 104.52378322 -112.66590601 99.48836154 -110.578125 94.453125 C-109.4711875 91.71491119 -108.56695551 88.92433257 -107.625 86.125 C-105.26903611 79.48939529 -102.47441566 73.09697976 -99.5625 66.6875 C-99.1305835 65.73536621 -98.69866699 64.78323242 -98.25366211 63.80224609 C-96.26289132 59.47240631 -94.27114932 55.26437985 -91.6875 51.25 C-90.72457031 49.70119141 -90.72457031 49.70119141 -89.7421875 48.12109375 C-75.91502687 26.2336559 -75.91502687 26.2336559 -67.6875 20.25 C-66.90375 19.59 -66.12 18.93 -65.3125 18.25 C-55.531598 10.79788419 -55.531598 10.79788419 -49.6875 10.25 C-49.6875 9.59 -49.6875 8.93 -49.6875 8.25 C-47.66694982 7.62408521 -45.6460454 6.99931391 -43.625 6.375 C-41.93697266 5.85292969 -41.93697266 5.85292969 -40.21484375 5.3203125 C-26.67825858 1.21286584 -14.10060038 0.05883422 0 0 Z M168.3125 217.25 C168.3125 217.91 168.3125 218.57 168.3125 219.25 C167.75304687 219.26417969 167.19359375 219.27835938 166.6171875 219.29296875 C158.62676546 219.76828324 151.73334423 222.39360222 144.3125 225.25 C143.3225 225.58 142.3325 225.91 141.3125 226.25 C141.3125 226.91 141.3125 227.57 141.3125 228.25 C140.405 228.29125 139.4975 228.3325 138.5625 228.375 C132.65548458 229.16666186 127.48989441 232.47001975 122.3125 235.25 C122.3125 235.91 122.3125 236.57 122.3125 237.25 C121.631875 237.3325 120.95125 237.415 120.25 237.5 C116.51589795 238.45338776 113.56892335 240.26755907 110.3125 242.25 C109.43078125 242.75402344 108.5490625 243.25804687 107.640625 243.77734375 C106.72796875 244.30457031 105.8153125 244.83179688 104.875 245.375 C104.01003906 245.87257813 103.14507813 246.37015625 102.25390625 246.8828125 C101.61324219 247.33398438 100.97257812 247.78515625 100.3125 248.25 C100.3125 248.91 100.3125 249.57 100.3125 250.25 C99.425625 250.4975 98.53875 250.745 97.625 251 C94.19238002 252.29532829 92.07176166 253.87396913 89.3125 256.25 C88.3225 256.745 88.3225 256.745 87.3125 257.25 C87.3125 257.91 87.3125 258.57 87.3125 259.25 C86.508125 259.518125 85.70375 259.78625 84.875 260.0625 C83.6065625 260.6503125 83.6065625 260.6503125 82.3125 261.25 C81.9825 262.24 81.6525 263.23 81.3125 264.25 C80.6525 264.25 79.9925 264.25 79.3125 264.25 C79.11914062 265.15363281 78.92578125 266.05726563 78.7265625 266.98828125 C78.46617187 268.16777344 78.20578125 269.34726562 77.9375 270.5625 C77.68226563 271.73425781 77.42703125 272.90601563 77.1640625 274.11328125 C76.3125 277.25 76.3125 277.25 74.3125 280.25 C73.77162831 282.61171199 73.30141548 284.98996425 72.875 287.375 C71.97142869 292.42467282 70.76594142 297.0753929 69.09057617 301.92041016 C67.77590738 305.85657884 66.73623426 309.86132567 65.6875 313.875 C65.4709375 314.68195313 65.254375 315.48890625 65.03125 316.3203125 C64.0893292 319.90193728 63.29889092 323.34810722 62.7890625 327.0234375 C62.32946169 330.13516102 61.49447819 332.35604629 60.3125 335.25 C59.36491541 338.56089224 58.55218674 341.90126418 57.75 345.25 C57.52675049 346.18030029 57.30350098 347.11060059 57.07348633 348.0690918 C55.4365176 355.14749424 54.46106263 361.97043121 54.3125 369.25 C53.6525 369.25 52.9925 369.25 52.3125 369.25 C52.13074219 370.48234375 51.94898438 371.7146875 51.76171875 372.984375 C49.49504508 388.01840399 49.49504508 388.01840399 47.75 394.5 C46.21905609 400.19319767 45.49248676 405.89302144 44.77734375 411.73828125 C44.40310562 414.56550879 43.92972783 417.28258242 43.3125 420.0625 C42.08663679 425.73815015 41.57383592 431.49877658 41.00976562 437.27075195 C40.41475352 443.14774648 40.41475352 443.14774648 39.3125 444.25 C38.94792465 447.17349606 38.64212867 450.08271255 38.375 453.015625 C38.24750366 454.37043976 38.24750366 454.37043976 38.11743164 455.75262451 C37.93706589 457.68269543 37.75900003 459.6129824 37.58300781 461.54345703 C37.31991352 464.41897322 37.04729504 467.29346041 36.7734375 470.16796875 C35.03887551 488.70563702 34.1207615 507.19453471 34.1875 525.8125 C34.18871857 526.56828339 34.18993713 527.32406677 34.19119263 528.10275269 C34.21127412 538.84522589 34.38394395 549.57603373 34.75 560.3125 C34.78915527 561.48304932 34.82831055 562.65359863 34.86865234 563.85961914 C35.029833 569.64943541 35.029833 569.64943541 36.3125 575.25 C36.77286425 578.64518637 37.17486517 582.04139414 37.5625 585.4453125 C37.9258037 588.52204072 38.32963501 591.30140502 39.3125 594.25 C39.9725 594.25 40.6325 594.25 41.3125 594.25 C41.69921875 595.55904297 41.69921875 595.55904297 42.09375 596.89453125 C43.32580443 600.28662982 44.83269651 602.93004428 46.8125 605.9375 C47.4209375 606.86949219 48.029375 607.80148437 48.65625 608.76171875 C49.87427485 610.59162872 51.09314897 612.42097346 52.3125 614.25 C52.9725 614.25 53.6325 614.25 54.3125 614.25 C54.68375 615.0853125 54.68375 615.0853125 55.0625 615.9375 C56.54174818 618.67410913 58.24717439 620.92650869 60.3125 623.25 C60.9725 623.25 61.6325 623.25 62.3125 623.25 C62.9725 624.57 63.6325 625.89 64.3125 627.25 C64.9725 627.25 65.6325 627.25 66.3125 627.25 C66.3125 627.91 66.3125 628.57 66.3125 629.25 C68.94934747 631.64820305 68.94934747 631.64820305 72.3125 632.25 C72.3125 632.91 72.3125 633.57 72.3125 634.25 C74.2925 634.91 76.2725 635.57 78.3125 636.25 C78.3125 636.91 78.3125 637.57 78.3125 638.25 C82.7675 639.735 82.7675 639.735 87.3125 641.25 C87.3125 641.91 87.3125 642.57 87.3125 643.25 C100.1107177 647.93557469 100.1107177 647.93557469 113.3125 651.25 C113.6425 651.58 113.9725 651.91 114.3125 652.25 C134.39678504 655.02373695 155.68446574 656.22773272 175.3125 650.25 C177.12442611 649.76866775 178.93688934 649.2893508 180.75 648.8125 C185.40286225 647.55168313 189.82746576 646.01197774 194.3125 644.25 C195.3025 643.92 196.2925 643.59 197.3125 643.25 C197.3125 642.59 197.3125 641.93 197.3125 641.25 C198.18261719 640.99476563 198.18261719 640.99476563 199.0703125 640.734375 C204.0929105 639.17620928 208.1793897 637.5352928 212.3125 634.25 C212.3125 633.59 212.3125 632.93 212.3125 632.25 C213.611875 631.9096875 213.611875 631.9096875 214.9375 631.5625 C218.97823255 629.99110401 221.18447109 628.22907516 224.3125 625.25 C224.3125 624.59 224.3125 623.93 224.3125 623.25 C224.993125 623.085 225.67375 622.92 226.375 622.75 C230.74606968 620.51796442 233.21841864 616.98649656 236.3125 613.25 C238.17936546 611.19792963 240.04975489 609.14948124 241.9296875 607.109375 C243.44641277 605.32776505 243.44641277 605.32776505 243.8203125 603.078125 C244.06394531 602.17320312 244.06394531 602.17320312 244.3125 601.25 C245.3025 600.92 246.2925 600.59 247.3125 600.25 C249.24970112 597.58597026 249.24970112 597.58597026 251.125 594.3125 C251.47828369 593.71840332 251.83156738 593.12430664 252.19555664 592.51220703 C252.91038022 591.30987863 253.62224901 590.10578827 254.33105469 588.89990234 C255.14655588 587.52896775 255.99502484 586.17770844 256.8515625 584.83203125 C260.37761058 579.26717883 263.27177454 573.42926246 266.125 567.5 C266.52259521 566.68321777 266.92019043 565.86643555 267.32983398 565.02490234 C269.346139 560.75996086 270.84451134 557.00660608 271.3125 552.25 C271.9725 552.25 272.6325 552.25 273.3125 552.25 C276.32070654 545.01750343 278.89087612 537.69725335 281.3125 530.25 C281.81099674 528.74949975 282.3108734 527.24945682 282.8125 525.75 C283.04839844 525.03714844 283.28429687 524.32429688 283.52734375 523.58984375 C284.1115831 521.84875234 284.71024279 520.11248658 285.31640625 518.37890625 C287.24768339 512.78461639 288.85138607 507.34712585 289.8203125 501.50390625 C290.3125 499.25 290.3125 499.25 291.3046875 496.8359375 C292.41768507 493.98010652 292.87567705 491.34295925 293.3125 488.3125 C293.76199319 485.20216763 294.26545666 482.38790526 295.28125 479.41015625 C296.55118269 475.51858222 297.1848266 471.66199388 297.8125 467.625 C298.07132935 466.00125659 298.33044367 464.37755858 298.58984375 462.75390625 C298.71343262 461.97289551 298.83702148 461.19188477 298.96435547 460.38720703 C299.39062002 457.77043294 299.88757685 455.16848677 300.375 452.5625 C301.5892274 445.428914 302.06186933 438.20269246 302.61547852 430.9934082 C302.69209717 430.02363037 302.76871582 429.05385254 302.84765625 428.0546875 C302.913479 427.17796387 302.97930176 426.30124023 303.04711914 425.39794922 C303.3125 423.25 303.3125 423.25 304.3125 421.25 C305.34555254 414.4240558 305.51537692 407.50800412 305.6640625 400.6171875 C305.68766846 399.62987137 305.71127441 398.64255524 305.7355957 397.62532043 C305.80850271 394.45864021 305.87400347 391.29188214 305.9375 388.125 C305.97118683 386.51028305 305.97118683 386.51028305 306.0055542 384.86294556 C306.31404856 369.63029007 306.51622882 354.45253372 305.3125 339.25 C305.19986816 337.7642749 305.19986816 337.7642749 305.08496094 336.24853516 C305.12296923 331.38816343 305.12296923 331.38816343 303.3125 327.25 C303.07526539 325.89244929 302.89269078 324.52524974 302.734375 323.15625 C299.40878604 296.33739055 290.94746059 270.52780136 274.0625 249.125 C273.53060059 248.44832275 272.99870117 247.77164551 272.45068359 247.07446289 C271.12026173 245.42556412 269.72165817 243.83213867 268.3125 242.25 C267.6525 242.25 266.9925 242.25 266.3125 242.25 C266.05597656 241.65960938 265.79945313 241.06921875 265.53515625 240.4609375 C261.92145234 233.92625247 253.75064679 228.75956068 247.3125 225.25 C243.96555215 224.30928454 243.96555215 224.30928454 241.3125 224.25 C241.3125 223.59 241.3125 222.93 241.3125 222.25 C240.42046875 221.98445312 239.5284375 221.71890625 238.609375 221.4453125 C237.43890625 221.09210938 236.2684375 220.73890625 235.0625 220.375 C233.90234375 220.02695313 232.7421875 219.67890625 231.546875 219.3203125 C228.3125 218.25 228.3125 218.25 226.30078125 217.1875 C211.35533749 210.14053241 183.69939679 212.79061216 168.3125 217.25 Z " fill="#FFFFFF" transform="translate(468.6875,34.75)"/>
<path d="M0 0 C2.38230683 0.00538706 4.76442716 0.0000058 7.14672852 -0.00634766 C18.20744668 -0.01333184 28.57761481 0.34680723 39.25024414 3.44287109 C40.0273877 3.66289795 40.80453125 3.8829248 41.60522461 4.10961914 C47.03865511 5.68929022 52.11774366 7.59537085 57.18774414 10.13037109 C57.18774414 10.79037109 57.18774414 11.45037109 57.18774414 12.13037109 C57.88899414 12.35724609 58.59024414 12.58412109 59.31274414 12.81787109 C66.73000264 16.20401084 71.08201103 22.26723735 75.18774414 29.13037109 C75.18774414 29.79037109 75.18774414 30.45037109 75.18774414 31.13037109 C75.84774414 31.13037109 76.50774414 31.13037109 77.18774414 31.13037109 C77.62086914 32.83193359 77.62086914 32.83193359 78.06274414 34.56787109 C78.43399414 35.74349609 78.80524414 36.91912109 79.18774414 38.13037109 C79.84774414 38.46037109 80.50774414 38.79037109 81.18774414 39.13037109 C84.97605727 47.68367183 87.20703665 56.67715376 88.72290039 65.87255859 C88.9636076 68.08956474 88.9636076 68.08956474 90.18774414 69.13037109 C92.70919421 84.6637487 91.67734594 101.54275222 90.18774414 117.13037109 C89.52774414 117.13037109 88.86774414 117.13037109 88.18774414 117.13037109 C88.21094727 117.83419922 88.23415039 118.53802734 88.25805664 119.26318359 C88.44620441 129.55755462 87.46419926 139.35121961 84.18774414 149.13037109 C83.67692651 151.56143512 83.19931035 153.99964649 82.75024414 156.44287109 C81.80508217 161.38024861 80.69205709 166.12512665 78.99633789 170.86083984 C76.67373547 177.37983506 74.74496682 184.04523845 72.92602539 190.72021484 C72.70994629 191.51242432 72.49386719 192.30463379 72.27124023 193.12084961 C71.85133708 194.67080958 71.4360378 196.22202673 71.02612305 197.7746582 C70.08646162 201.25171533 69.05879987 204.42994838 67.62915039 207.75146484 C66.18835669 211.12893518 65.38959574 214.22088166 64.68774414 217.81787109 C63.13802228 225.4447745 61.42099913 233.01149212 59.18774414 240.47021484 C58.1185486 244.38363757 57.40347254 248.25704409 56.75024414 252.25537109 C55.86985499 257.4721992 54.8852514 262.6135233 53.62524414 267.75537109 C52.1466238 273.8711306 51.34340828 279.96764428 50.61743164 286.20849609 C50.18774414 289.13037109 50.18774414 289.13037109 49.18774414 290.13037109 C48.91298867 291.88538809 48.69606597 293.64953084 48.50415039 295.41552734 C48.38104492 296.50414062 48.25793945 297.59275391 48.13110352 298.71435547 C47.8802019 301.0059236 47.63018 303.29758824 47.38110352 305.58935547 C47.25670898 306.68699219 47.13231445 307.78462891 47.00415039 308.91552734 C46.89530518 309.91463135 46.78645996 310.91373535 46.67431641 311.94311523 C46.18774414 315.13037109 46.18774414 315.13037109 45.18774414 318.984375 C44.0943144 323.20435345 43.67858418 327.34147271 43.37133789 331.68115234 C43.30995132 332.46177536 43.24856476 333.24239838 43.18531799 334.04667664 C42.99221129 336.51163057 42.80804344 338.9771331 42.62524414 341.44287109 C42.43779787 343.92635374 42.24835271 346.40963607 42.05445862 348.8926239 C41.93468077 350.43041336 41.81874947 351.9685085 41.70713806 353.50691223 C41.47113339 356.56964505 41.16378548 359.20224706 40.18774414 362.13037109 C39.9613901 364.57359041 39.78513151 366.9952653 39.65429688 369.44384766 C39.59189269 370.56429159 39.59189269 370.56429159 39.52822781 371.70737076 C39.07064199 380.50778419 38.91792499 389.31393181 38.77275276 398.12404633 C38.72155403 401.1955157 38.665012 404.26684715 38.60704041 407.3381958 C38.4430066 416.05703787 38.28520154 424.77597087 38.13818359 433.49511719 C38.04728034 438.86411188 37.94774942 444.23289108 37.84292412 449.60163116 C37.8050186 451.62832123 37.77030987 453.65507398 37.73903084 455.68187714 C37.53328956 468.94475353 36.69105504 481.50303964 33.56274414 494.44287109 C33.30235352 495.53212891 33.04196289 496.62138672 32.77368164 497.74365234 C32.58032227 498.53126953 32.38696289 499.31888672 32.18774414 500.13037109 C31.52774414 500.13037109 30.86774414 500.13037109 30.18774414 500.13037109 C30.08719727 501.01080078 29.98665039 501.89123047 29.88305664 502.79833984 C27.44669826 514.47369772 16.27702332 525.89642931 7.18774414 533.13037109 C6.49036133 533.68982422 5.79297852 534.24927734 5.07446289 534.82568359 C3.18774414 536.13037109 3.18774414 536.13037109 1.18774414 536.13037109 C1.18774414 536.79037109 1.18774414 537.45037109 1.18774414 538.13037109 C-1.07952919 539.3044413 -3.3506021 540.46976848 -5.62475586 541.63037109 C-6.26735352 541.96423828 -6.90995117 542.29810547 -7.57202148 542.64208984 C-10.50773285 544.13276194 -12.47352103 545.13037109 -15.81225586 545.13037109 C-15.81225586 545.79037109 -15.81225586 546.45037109 -15.81225586 547.13037109 C-34.18309788 552.52364582 -51.49537399 552.93373961 -69.81225586 547.13037109 C-69.81225586 546.47037109 -69.81225586 545.81037109 -69.81225586 545.13037109 C-70.87959961 544.96794922 -70.87959961 544.96794922 -71.96850586 544.80224609 C-79.29336839 543.0716467 -85.84118843 538.68626998 -90.81225586 533.13037109 C-91.59987305 532.52708984 -92.38749023 531.92380859 -93.19897461 531.30224609 C-102.6944967 523.41060142 -110.11105269 509.46734334 -114.81225586 498.13037109 C-114.81225586 497.14037109 -114.81225586 496.15037109 -114.81225586 495.13037109 C-115.47225586 495.13037109 -116.13225586 495.13037109 -116.81225586 495.13037109 C-116.99401367 494.51291016 -117.17577148 493.89544922 -117.36303711 493.25927734 C-118.6271597 489.0001566 -119.92086374 484.76635547 -121.37475586 480.56787109 C-122.64817666 476.81393268 -123.53965193 473.05974754 -124.34350586 469.18115234 C-124.81339861 466.94377079 -124.81339861 466.94377079 -125.87475586 464.13037109 C-127.11186236 460.17163029 -127.46435076 456.2502999 -127.81225586 452.13037109 C-128.47225586 452.13037109 -129.13225586 452.13037109 -129.81225586 452.13037109 C-132.74194336 438.94677734 -132.74194336 438.94677734 -133.2746582 436.53295898 C-133.63018248 434.94407867 -133.99495177 433.35723595 -134.36938477 431.77270508 C-135.4390381 427.19090976 -136.1397256 422.77876686 -136.43725586 418.06787109 C-136.5494043 416.37984375 -136.5494043 416.37984375 -136.66381836 414.65771484 C-136.71280273 413.82369141 -136.76178711 412.98966797 -136.81225586 412.13037109 C-137.47225586 412.13037109 -138.13225586 412.13037109 -138.81225586 412.13037109 C-139.90808632 402.3715781 -140.99601404 392.61196091 -142.06973267 382.85070801 C-142.52118021 378.75005517 -142.98037211 374.65053627 -143.45288086 370.55224609 C-144.8790797 357.76705034 -145.49043739 344.93249717 -146.11547852 332.08740234 C-146.15459854 331.31429718 -146.19371857 330.54119202 -146.23402405 329.74465942 C-146.3081817 328.27501866 -146.37867567 326.80518727 -146.4450531 325.33517456 C-146.59331421 321.60810517 -146.59331421 321.60810517 -147.81225586 318.13037109 C-147.95318439 316.47355276 -148.0380952 314.81178005 -148.09350586 313.14990234 C-148.13088867 312.15023438 -148.16827148 311.15056641 -148.20678711 310.12060547 C-148.2415918 309.07195312 -148.27639648 308.02330078 -148.31225586 306.94287109 C-148.38177983 304.88676399 -148.45461887 302.83076592 -148.53100586 300.77490234 C-148.56129883 299.86071533 -148.5915918 298.94652832 -148.62280273 298.00463867 C-148.76208222 295.11500203 -148.76208222 295.11500203 -149.31600952 292.23753357 C-150.11730496 286.70146219 -149.95125461 281.12291689 -149.94165039 275.54150391 C-149.94340271 274.28709 -149.94515503 273.03267609 -149.94696045 271.74024963 C-149.95059613 268.31699677 -149.94976041 264.8938047 -149.94658136 261.47055531 C-149.94404156 257.88318109 -149.94639961 254.29580938 -149.94796753 250.70843506 C-149.94978355 244.68973323 -149.94739681 238.67104371 -149.94262695 232.65234375 C-149.93717552 225.69322327 -149.93895564 218.73413204 -149.94445336 211.77501225 C-149.94898884 205.7944041 -149.9496332 199.81380476 -149.94701469 193.83319545 C-149.94545559 190.26341824 -149.94524832 186.6936548 -149.94855118 183.12387848 C-149.95197185 179.14979408 -149.94723307 175.17574261 -149.94165039 171.20166016 C-149.94367462 170.01719803 -149.94569885 168.8327359 -149.94778442 167.61238098 C-149.9449646 166.53294724 -149.94214478 165.45351349 -149.9392395 164.34136963 C-149.93886248 163.40193638 -149.93848545 162.46250313 -149.938097 161.4946022 C-149.81225586 159.13037109 -149.81225586 159.13037109 -148.81225586 156.13037109 C-148.63392739 154.11214572 -148.49288394 152.09051305 -148.37475586 150.06787109 C-148.0317306 145.20120019 -147.38227497 140.62377314 -146.33569336 135.86865234 C-145.70932125 132.59188479 -145.36180114 129.32184249 -144.99975586 126.00537109 C-144.1723538 118.80184612 -142.83620282 111.73037371 -141.37475586 104.63037109 C-141.16939209 103.61571777 -140.96402832 102.60106445 -140.75244141 101.55566406 C-139.5463062 95.83891362 -137.99582054 90.54073552 -135.81225586 85.13037109 C-135.34182888 83.83420679 -134.87701253 82.53599293 -134.41772461 81.23583984 C-131.49252212 73.10664077 -128.16104903 65.62287017 -123.81225586 58.13037109 C-123.13477147 56.8025017 -122.46412244 55.47100236 -121.81225586 54.13037109 C-121.15225586 54.13037109 -120.49225586 54.13037109 -119.81225586 54.13037109 C-119.60600586 53.47037109 -119.39975586 52.81037109 -119.18725586 52.13037109 C-116.36559532 45.97402082 -111.84840086 40.62206798 -106.81225586 36.13037109 C-105.82225586 35.80037109 -104.83225586 35.47037109 -103.81225586 35.13037109 C-103.48225586 34.14037109 -103.15225586 33.15037109 -102.81225586 32.13037109 C-100.36560485 29.85800208 -97.5486957 28.03732761 -94.81225586 26.13037109 C-93.88413086 25.47294922 -92.95600586 24.81552734 -91.99975586 24.13818359 C-83.66179496 18.38412203 -75.14719186 12.81936683 -64.81225586 12.13037109 C-64.81225586 11.47037109 -64.81225586 10.81037109 -64.81225586 10.13037109 C-63.70817383 9.84033203 -63.70817383 9.84033203 -62.58178711 9.54443359 C-61.6059668 9.28404297 -60.63014648 9.02365234 -59.62475586 8.75537109 C-58.66182617 8.50013672 -57.69889648 8.24490234 -56.70678711 7.98193359 C-53.87312824 7.21476517 -53.87312824 7.21476517 -51.52319336 6.12646484 C-47.64420407 4.7011878 -43.70017059 4.18259846 -39.62475586 3.56787109 C-38.00581555 3.31948922 -36.38729983 3.06831911 -34.76928711 2.81396484 C-33.70158081 2.65238892 -33.70158081 2.65238892 -32.61230469 2.48754883 C-30.72027188 2.19461953 -30.72027188 2.19461953 -28.81225586 1.13037109 C-19.26772576 -0.11064116 -9.60677651 -0.02582734 0 0 Z M-16.12475586 24.94287109 C-17.19419937 25.00420227 -17.19419937 25.00420227 -18.2852478 25.06677246 C-28.25291946 25.65573402 -37.32310831 26.90002299 -46.81225586 30.13037109 C-49.47047627 30.8372931 -52.1381131 31.48488836 -54.81225586 32.13037109 C-54.81225586 32.79037109 -54.81225586 33.45037109 -54.81225586 34.13037109 C-55.84350586 34.25412109 -56.87475586 34.37787109 -57.93725586 34.50537109 C-61.43342432 35.06926923 -64.49623213 35.91719168 -67.81225586 37.13037109 C-67.81225586 37.79037109 -67.81225586 38.45037109 -67.81225586 39.13037109 C-68.59600586 39.27474609 -69.37975586 39.41912109 -70.18725586 39.56787109 C-72.77646604 40.00836034 -72.77646604 40.00836034 -74.81225586 41.13037109 C-74.81225586 41.79037109 -74.81225586 42.45037109 -74.81225586 43.13037109 C-75.49288086 43.17162109 -76.17350586 43.21287109 -76.87475586 43.25537109 C-80.99729239 44.4833607 -83.91221756 46.97960903 -86.81225586 50.13037109 C-86.81225586 50.79037109 -86.81225586 51.45037109 -86.81225586 52.13037109 C-87.37557617 52.35982422 -87.93889648 52.58927734 -88.51928711 52.82568359 C-91.42617834 54.47968985 -93.26822715 56.51933746 -95.49975586 59.00537109 C-96.28737305 59.86904297 -97.07499023 60.73271484 -97.88647461 61.62255859 C-99.66848799 63.94315208 -100.42122401 65.28047798 -100.81225586 68.13037109 C-101.47225586 68.13037109 -102.13225586 68.13037109 -102.81225586 68.13037109 C-108.10404821 79.182256 -113.5963232 90.89806777 -115.39038086 103.11474609 C-115.81225586 105.13037109 -115.81225586 105.13037109 -116.79663086 106.93896484 C-118.23603951 110.04476582 -118.43038043 113.05031705 -118.81225586 116.44287109 C-119.2435486 120.25134 -119.7025211 123.76587955 -120.80834961 127.43896484 C-122.11307817 132.23650762 -122.49132469 136.93506032 -122.87475586 141.88037109 C-122.95781982 142.88229492 -123.04088379 143.88421875 -123.12646484 144.91650391 C-123.72502055 152.36284294 -124.1719757 159.81344704 -124.47070312 167.27783203 C-124.60763492 170.45072736 -124.80190461 173.09931736 -125.81225586 176.13037109 C-125.90208771 177.47129898 -125.93852579 178.81623816 -125.9392395 180.16017151 C-125.94205933 180.97757813 -125.94487915 181.79498474 -125.94778442 182.63716125 C-125.94576019 183.53025497 -125.94373596 184.42334869 -125.94165039 185.34350586 C-125.94340271 186.2868277 -125.94515503 187.23014954 -125.94696045 188.20205688 C-125.95136773 191.32531566 -125.94844513 194.44851798 -125.94506836 197.57177734 C-125.94574166 199.73746247 -125.94671191 201.90314753 -125.94796753 204.0688324 C-125.94944293 208.609128 -125.94729477 213.14940394 -125.94262695 217.68969727 C-125.93692637 223.51976617 -125.94021176 229.34978908 -125.94619942 235.1798563 C-125.94980636 239.65183359 -125.94866588 244.1237999 -125.94607162 248.59577751 C-125.9454029 250.74605248 -125.94622888 252.89632843 -125.94855118 255.04660225 C-125.95108024 258.0466388 -125.94723363 261.04659995 -125.94165039 264.04663086 C-125.94367462 264.94174881 -125.94569885 265.83686676 -125.94778442 266.7591095 C-126.06444522 271.08076367 -126.06444522 271.08076367 -124.81225586 275.13037109 C-124.64451103 277.11212145 -124.53607673 279.09899468 -124.45507812 281.08618164 C-124.40154678 282.33896408 -124.34801544 283.59174652 -124.29286194 284.88249207 C-124.26620012 285.55522848 -124.23953831 286.2279649 -124.21206856 286.92108727 C-124.12781025 289.03849696 -124.03750667 291.15557119 -123.94554138 293.2726593 C-123.68513912 299.2939699 -123.43604008 305.31573608 -123.18994141 311.33764648 C-123.0389037 315.02310991 -122.88109514 318.7082391 -122.71961784 322.39325905 C-122.66002901 323.78466785 -122.60297485 325.17618806 -122.54873848 326.56781578 C-122.21617398 335.09717113 -121.46989924 343.40795449 -120.26673889 351.8528595 C-119.7543264 355.54813028 -119.43445791 359.1885814 -119.21459961 362.91162109 C-119.13532227 364.18521484 -119.05604492 365.45880859 -118.97436523 366.77099609 C-118.90024414 368.04458984 -118.82612305 369.31818359 -118.74975586 370.63037109 C-118.59468578 373.22427067 -118.43721428 375.81802802 -118.27709961 378.41162109 C-118.17836548 380.09868164 -118.17836548 380.09868164 -118.07763672 381.81982422 C-118.04819142 387.91057472 -118.04819142 387.91057472 -115.81225586 393.13037109 C-115.54902283 394.91180723 -115.34403801 396.70191374 -115.16381836 398.49365234 C-115.04522461 399.60933594 -114.92663086 400.72501953 -114.80444336 401.87451172 C-114.5641085 404.21010635 -114.32700201 406.54603599 -114.09350586 408.88232422 C-113.37349812 415.59601339 -112.27169764 421.98797818 -110.51513672 428.51049805 C-109.67241353 431.65161044 -108.99519713 434.81322776 -108.33959961 437.99755859 C-107.80918954 440.27057623 -107.80918954 440.27057623 -106.84741211 442.98193359 C-105.45058866 447.23038528 -104.54962967 451.54670806 -103.59350586 455.91162109 C-102.82833294 459.06413351 -101.84456747 462.05612444 -100.81225586 465.13037109 C-100.40780065 466.58277967 -100.01134699 468.03742898 -99.62084961 469.49365234 C-95.14360678 485.87097893 -88.38918954 501.42756225 -76.81225586 514.13037109 C-76.15225586 514.13037109 -75.49225586 514.13037109 -74.81225586 514.13037109 C-74.31725586 515.61537109 -74.31725586 515.61537109 -73.81225586 517.13037109 C-69.37843635 521.19470564 -65.85380967 523.13037109 -59.81225586 523.13037109 C-59.81225586 523.79037109 -59.81225586 524.45037109 -59.81225586 525.13037109 C-47.95988956 527.24080834 -37.56999015 527.98691391 -25.81225586 525.13037109 C-25.81225586 524.47037109 -25.81225586 523.81037109 -25.81225586 523.13037109 C-25.18577148 522.99759766 -24.55928711 522.86482422 -23.91381836 522.72802734 C-23.09655273 522.55142578 -22.27928711 522.37482422 -21.43725586 522.19287109 C-20.2190918 521.93183594 -20.2190918 521.93183594 -18.97631836 521.66552734 C-16.78279286 521.20706416 -16.78279286 521.20706416 -14.81225586 520.13037109 C-14.81225586 519.47037109 -14.81225586 518.81037109 -14.81225586 518.13037109 C-14.19350586 517.98599609 -13.57475586 517.84162109 -12.93725586 517.69287109 C-10.77967264 517.19884884 -10.77967264 517.19884884 -8.81225586 516.13037109 C-8.81225586 515.47037109 -8.81225586 514.81037109 -8.81225586 514.13037109 C-8.2334668 513.88287109 -7.65467773 513.63537109 -7.05834961 513.38037109 C0.30280538 509.28372832 5.29913544 500.82406926 8.18774414 493.13037109 C8.18774414 492.14037109 8.18774414 491.15037109 8.18774414 490.13037109 C8.84774414 490.13037109 9.50774414 490.13037109 10.18774414 490.13037109 C12.29438971 477.59392153 12.58227988 465.19345427 12.75024414 452.50537109 C12.79438098 449.5190192 12.84108853 446.53276559 12.89305115 443.54653931 C12.92467934 441.70463672 12.95166727 439.86264667 12.97328186 438.02059937 C12.99351662 436.77241928 12.99351662 436.77241928 13.01416016 435.49902344 C13.02367203 434.77371429 13.0331839 434.04840515 13.04298401 433.30111694 C13.18774414 431.13037109 13.18774414 431.13037109 13.68200684 428.73420715 C14.24793694 425.82046279 14.37585418 423.06754404 14.453125 420.1003418 C14.50339088 418.30479607 14.50339088 418.30479607 14.55467224 416.47297668 C14.58698441 415.18042465 14.61929657 413.88787262 14.65258789 412.55615234 C14.69065485 411.19067356 14.72928597 409.8252104 14.76844788 408.45976257 C14.93273718 402.69368327 15.08653387 396.92733572 15.23730469 391.16088867 C15.62411076 376.47707164 16.0771966 361.82412626 17.19165039 347.17333984 C17.27446762 346.07846756 17.35728485 344.98359528 17.44261169 343.85554504 C18.05482821 336.39620296 18.05482821 336.39620296 19.18774414 334.13037109 C19.44402325 332.26565639 19.65213638 330.39421985 19.83618164 328.52099609 C20.01141357 326.81061157 20.01141357 326.81061157 20.19018555 325.06567383 C20.31312988 323.84952393 20.43607422 322.63337402 20.56274414 321.38037109 C21.45008467 312.90311965 22.54958251 304.7726261 24.55883789 296.49365234 C25.873416 289.46351723 25.95314323 282.26547474 26.18774414 275.13037109 C26.84774414 275.13037109 27.50774414 275.13037109 28.18774414 275.13037109 C28.26814941 274.56116943 28.34855469 273.99196777 28.43139648 273.40551758 C28.80347315 270.79222305 29.18305348 268.18006979 29.56274414 265.56787109 C29.68907227 264.67261719 29.81540039 263.77736328 29.94555664 262.85498047 C30.68673175 257.79646035 31.71452627 253.03713707 33.18774414 248.13037109 C33.5991265 246.11662907 33.9761492 244.09545493 34.31274414 242.06787109 C34.48032227 241.08689453 34.64790039 240.10591797 34.82055664 239.09521484 C35.19456965 236.07525875 35.25097794 233.17011023 35.18774414 230.13037109 C35.84774414 230.13037109 36.50774414 230.13037109 37.18774414 230.13037109 C37.4777832 228.59316406 37.4777832 228.59316406 37.77368164 227.02490234 C38.03644277 225.66417508 38.29947812 224.30350076 38.56274414 222.94287109 C38.68907227 222.26933594 38.81540039 221.59580078 38.94555664 220.90185547 C39.68803791 217.09663894 40.71861953 213.70485538 42.18774414 210.13037109 C42.72275613 207.9929982 43.22106351 205.8461964 43.68774414 203.69287109 C44.62187263 199.39283398 45.73621021 195.28495836 47.18774414 191.13037109 C49.42710452 184.63376517 51.3571705 178.0814244 53.21899414 171.46630859 C53.97573254 168.86044331 54.78634017 166.31261498 55.68774414 163.75537109 C59.08673341 153.74213242 61.23343186 143.28363926 63.37524414 132.94287109 C63.54209717 132.16065186 63.7089502 131.37843262 63.88085938 130.57250977 C66.34625665 118.31904168 66.42603763 105.83489808 66.43774414 93.38037109 C66.43875122 92.63157684 66.4397583 91.88278259 66.4407959 91.11129761 C66.42703901 75.97083071 65.19431106 62.24732787 59.18774414 48.13037109 C58.52774414 48.13037109 57.86774414 48.13037109 57.18774414 48.13037109 C57.06399414 47.38787109 56.94024414 46.64537109 56.81274414 45.88037109 C56.23287713 43.32895625 55.45065675 41.40361379 54.18774414 39.13037109 C53.52774414 39.13037109 52.86774414 39.13037109 52.18774414 39.13037109 C51.78555664 38.17130859 51.78555664 38.17130859 51.37524414 37.19287109 C50.30106662 34.79905423 50.30106662 34.79905423 47.18774414 34.13037109 C47.18774414 33.47037109 47.18774414 32.81037109 47.18774414 32.13037109 C27.12630027 22.81104787 5.52564324 23.65392491 -16.12475586 24.94287109 Z " fill="#FFFFFF" transform="translate(169.812255859375,45.86962890625)"/>
<path d="M0 0 C1.13679199 0.00604248 2.27358398 0.01208496 3.44482422 0.01831055 C14.38104691 0.14733076 25.03663846 0.63938613 35.125 5.25 C35.87394531 5.57226562 36.62289062 5.89453125 37.39453125 6.2265625 C44.2016982 9.18423703 50.70748477 12.52784117 57.125 16.25 C57.125 16.91 57.125 17.57 57.125 18.25 C57.929375 18.518125 58.73375 18.78625 59.5625 19.0625 C60.408125 19.454375 61.25375 19.84625 62.125 20.25 C62.455 21.24 62.785 22.23 63.125 23.25 C63.7025 23.518125 64.28 23.78625 64.875 24.0625 C68.0985666 25.76382682 69.96087397 28.40349189 72.125 31.25 C72.58519531 31.83523438 73.04539063 32.42046875 73.51953125 33.0234375 C76.05660795 36.37208629 77.73341302 38.94254324 78.125 43.25 C78.785 43.25 79.445 43.25 80.125 43.25 C89.74126796 69.78649518 89.74126796 96.71350482 80.125 123.25 C79.465 123.25 78.805 123.25 78.125 123.25 C77.97224609 124.06210937 77.97224609 124.06210937 77.81640625 124.890625 C76.94742393 127.85596581 75.57027709 130.30524946 74.0625 133 C73.51464844 133.98484375 72.96679688 134.9696875 72.40234375 135.984375 C71.98082031 136.73203125 71.55929688 137.4796875 71.125 138.25 C70.465 138.25 69.805 138.25 69.125 138.25 C68.96 138.930625 68.795 139.61125 68.625 140.3125 C66.74130633 144.00140011 64.25958028 145.98928134 61.09765625 148.6015625 C59.14849578 150.1734464 59.14849578 150.1734464 57.62109375 151.79296875 C55.91453521 153.45496963 54.13877453 154.66744902 52.125 155.9375 C51.444375 156.37449219 50.76375 156.81148437 50.0625 157.26171875 C48.125 158.25 48.125 158.25 45.125 158.25 C45.125 158.91 45.125 159.57 45.125 160.25 C43.85660474 160.75615298 42.58516898 161.25469099 41.3125 161.75 C40.25095703 162.16765625 40.25095703 162.16765625 39.16796875 162.59375 C37.125 163.25 37.125 163.25 34.125 163.25 C34.125 163.91 34.125 164.57 34.125 165.25 C33.19816406 165.45496094 32.27132812 165.65992188 31.31640625 165.87109375 C30.11886719 166.14050781 28.92132813 166.40992188 27.6875 166.6875 C26.49253906 166.95433594 25.29757813 167.22117187 24.06640625 167.49609375 C21.2545314 167.95066748 21.2545314 167.95066748 20.125 169.25 C12.62037886 170.56410281 5.09348025 170.57671414 -2.5 170.625 C-3.23000214 170.63055908 -3.96000427 170.63611816 -4.71212769 170.6418457 C-17.33540625 170.69032153 -28.79772118 169.09714229 -40.875 165.25 C-40.875 164.59 -40.875 163.93 -40.875 163.25 C-41.73738281 163.14429688 -42.59976563 163.03859375 -43.48828125 162.9296875 C-47.0818194 162.20849299 -49.80344789 161.03550564 -53.0625 159.375 C-54.08730469 158.86195313 -55.11210938 158.34890625 -56.16796875 157.8203125 C-58.55501348 156.43561989 -60.02486317 155.237184 -61.875 153.25 C-63.11299656 152.33765036 -64.3639512 151.44271206 -65.625 150.5625 C-75.39348766 143.28961137 -83.45742196 132.08515607 -88.875 121.25 C-88.875 120.26 -88.875 119.27 -88.875 118.25 C-89.535 118.25 -90.195 118.25 -90.875 118.25 C-101.72856989 74.73034598 -101.72856989 74.73034598 -92.4375 56.6875 C-92.08623047 55.99857666 -91.73496094 55.30965332 -91.37304688 54.59985352 C-85.86805261 44.11706666 -79.34033538 34.5216525 -69.875 27.25 C-68.74793531 26.2732106 -67.62275869 25.29423586 -66.5 24.3125 C-63.875 22.25 -63.875 22.25 -61.875 22.25 C-61.875 21.59 -61.875 20.93 -61.875 20.25 C-61.276875 19.981875 -60.67875 19.71375 -60.0625 19.4375 C-57.89047439 18.41315713 -57.89047439 18.41315713 -56.66015625 16.91796875 C-42.35715279 3.55389331 -18.58290224 -0.15884003 0 0 Z M-29.875 29.25 C-29.875 29.91 -29.875 30.57 -29.875 31.25 C-30.74382812 31.35183594 -31.61265625 31.45367188 -32.5078125 31.55859375 C-36.09584698 32.29534793 -38.58339622 33.49749539 -41.75 35.3125 C-42.71679688 35.86035156 -43.68359375 36.40820312 -44.6796875 36.97265625 C-45.40414062 37.39417969 -46.12859375 37.81570313 -46.875 38.25 C-46.875 38.91 -46.875 39.57 -46.875 40.25 C-47.679375 40.518125 -48.48375 40.78625 -49.3125 41.0625 C-50.158125 41.454375 -51.00375 41.84625 -51.875 42.25 C-52.205 43.24 -52.535 44.23 -52.875 45.25 C-54.9375 46.4375 -54.9375 46.4375 -56.875 47.25 C-56.875 47.91 -56.875 48.57 -56.875 49.25 C-57.7721875 49.61544922 -57.7721875 49.61544922 -58.6875 49.98828125 C-61.28445967 51.48617049 -62.27833603 52.91667998 -63.875 55.4375 C-64.38546875 56.241875 -64.8959375 57.04625 -65.421875 57.875 C-65.90140625 58.65875 -66.3809375 59.4425 -66.875 60.25 C-67.47054687 61.2090625 -67.47054687 61.2090625 -68.078125 62.1875 C-71.73217156 68.29575693 -73.14574388 73.38643242 -73.0625 80.5 C-73.05605469 81.72203125 -73.04960938 82.9440625 -73.04296875 84.203125 C-73.08193156 87.16722201 -73.08193156 87.16722201 -71.875 89.25 C-71.63133398 91.5193233 -71.40510377 93.79052949 -71.1875 96.0625 C-70.04451217 105.97198887 -66.13650204 115.42312245 -59.875 123.25 C-59.215 123.25 -58.555 123.25 -57.875 123.25 C-57.648125 123.806875 -57.42125 124.36375 -57.1875 124.9375 C-55.49949964 127.91159588 -53.40823483 129.97008865 -50.875 132.25 C-50.215 132.25 -49.555 132.25 -48.875 132.25 C-48.875 132.91 -48.875 133.57 -48.875 134.25 C-46.22761084 135.7106285 -44.98051666 136.25 -41.875 136.25 C-41.875 136.91 -41.875 137.57 -41.875 138.25 C-32.15911815 142.80700653 -23.3816307 145.09344856 -12.67578125 145.92578125 C-8.875 146.25 -8.875 146.25 -6.98120117 146.80297852 C-4.2906254 147.37402804 -2.10060477 147.08054309 0.625 146.7265625 C2.2028125 146.52546875 2.2028125 146.52546875 3.8125 146.3203125 C4.905625 146.17335938 5.99875 146.02640625 7.125 145.875 C8.7646875 145.66617188 8.7646875 145.66617188 10.4375 145.453125 C16.83596871 144.64172033 16.83596871 144.64172033 23.125 143.25 C23.125 142.59 23.125 141.93 23.125 141.25 C24.0325 141.20875 24.94 141.1675 25.875 141.125 C31.78201542 140.33333814 36.94760559 137.02998025 42.125 134.25 C42.125 133.59 42.125 132.93 42.125 132.25 C43.24841797 131.88841797 43.24841797 131.88841797 44.39453125 131.51953125 C47.51213264 130.07000271 48.76815385 128.6709516 50.8125 125.9375 C51.39386719 125.17824219 51.97523438 124.41898438 52.57421875 123.63671875 C54.82902761 120.16647136 56.125 117.41338437 56.125 113.25 C56.785 113.25 57.445 113.25 58.125 113.25 C65.01780565 95.57487693 66.25391845 75.41453529 59.55078125 57.4765625 C55.55344356 48.43053256 51.24529369 42.17561972 43.125 36.25 C42.465 36.25 41.805 36.25 41.125 36.25 C41.125 35.59 41.125 34.93 41.125 34.25 C36.31290099 31.95954986 36.31290099 31.95954986 31.125 31.25 C31.125 30.59 31.125 29.93 31.125 29.25 C11.19167141 21.47655709 -9.86224449 22.01024349 -29.875 29.25 Z " fill="#FFFFFF" transform="translate(148.875,650.75)"/>
</svg>
