<?xml version="1.0" encoding="UTF-8"?>
<!DOCTYPE svg PUBLIC "-//W3C//DTD SVG 1.1//EN" "http://www.w3.org/Graphics/SVG/1.1/DTD/svg11.dtd">
<svg xmlns="http://www.w3.org/2000/svg" version="1.1" width="6450px" height="7730px" style="shape-rendering:geometricPrecision; text-rendering:geometricPrecision; image-rendering:optimizeQuality; fill-rule:evenodd; clip-rule:evenodd" xmlns:xlink="http://www.w3.org/1999/xlink">
<g><path style="opacity:0.812" fill="#fefefe" d="M 6449.5,0.5 C 6449.5,0.833333 6449.5,1.16667 6449.5,1.5C 6412.2,43.64 6375.03,85.9733 6338,128.5C 6337.33,129.167 6337.33,129.833 6338,130.5C 6343.08,127.374 6348.25,124.374 6353.5,121.5C 6354.52,122.002 6354.69,122.668 6354,123.5C 6336.33,139.833 6318.67,156.167 6301,172.5C 6090.49,432.897 5901.33,708.231 5733.5,998.5C 5729.91,979.788 5725.24,961.454 5719.5,943.5C 5719.5,942.833 5719.5,942.167 5719.5,941.5C 5861.18,701.366 6016.68,471.033 6186,250.5C 5995.09,408.534 5810.93,574.867 5633.5,749.5C 5626.22,738.224 5618.56,727.224 5610.5,716.5C 5610.5,716.167 5610.5,715.833 5610.5,715.5C 5632.3,694.87 5653.96,674.037 5675.5,653C 5674.83,652.333 5674.17,652.333 5673.5,653C 5651.63,672.376 5629.63,691.542 5607.5,710.5C 5599.12,700.122 5591.12,689.455 5583.5,678.5C 5731.81,548.335 5883.81,422.835 6039.5,302C 5895.07,354.595 5752.41,411.928 5611.5,474C 5557.33,498.255 5503.33,522.755 5449.5,547.5C 5438.66,539.498 5427.66,531.664 5416.5,524C 5415.29,522.961 5414.29,521.794 5413.5,520.5C 5651.14,407.443 5894.48,307.943 6143.5,222C 6244.28,146.375 6346.28,72.5416 6449.5,0.5 Z"/></g>
<g><path style="opacity:0.82" fill="#fd962f" d="M 5719.5,941.5 C 5699.7,873.725 5671.03,810.058 5633.5,750.5C 5633.5,750.167 5633.5,749.833 5633.5,749.5C 5810.93,574.867 5995.09,408.534 6186,250.5C 6016.68,471.033 5861.18,701.366 5719.5,941.5 Z"/></g>
<g><path style="opacity:0.831" fill="#11003f" d="M 5583.5,678.5 C 5578.17,682.833 5572.83,687.167 5567.5,691.5C 5527.02,641.016 5481.02,596.349 5429.5,557.5C 5436.43,554.533 5443.1,551.2 5449.5,547.5C 5503.33,522.755 5557.33,498.255 5611.5,474C 5752.41,411.928 5895.07,354.595 6039.5,302C 5883.81,422.835 5731.81,548.335 5583.5,678.5 Z"/></g>
<g><path style="opacity:0.997" fill="#11003f" d="M 5412.5,520.5 C 5405.7,524.898 5398.37,528.231 5390.5,530.5C 5276.19,456.789 5150.86,416.622 5014.5,410C 3872.5,409.333 2730.5,409.333 1588.5,410C 1387.32,422.691 1217.49,501.524 1079,646.5C 957.385,779.478 890.719,936.478 879,1117.5C 878.5,1158.83 878.333,1200.17 878.5,1241.5C 1018.22,1213.7 1158.22,1212.36 1298.5,1237.5C 1298.33,1202.83 1298.5,1168.17 1299,1133.5C 1309.43,1022.4 1361.26,936.905 1454.5,877C 1500.32,849.284 1549.98,833.618 1603.5,830C 2677.5,829.5 3751.5,829.333 4825.5,829.5C 4814.5,836.167 4803.5,842.833 4792.5,849.5C 4791.83,849.5 4791.17,849.5 4790.5,849.5C 3732.17,849.333 2673.83,849.5 1615.5,850C 1501.16,857.053 1414.99,909.553 1357,1007.5C 1333.58,1050.16 1320.92,1095.83 1319,1144.5C 1318.33,1176.5 1318.33,1208.5 1319,1240.5C 1585.1,1298.19 1802.1,1433.19 1970,1645.5C 2138.72,1868.39 2214.38,2120.05 2197,2400.5C 2172.94,2681.74 2060.44,2920.24 1859.5,3116C 1706.6,3260.38 1526.44,3354.55 1319,3398.5C 1318.33,4590.5 1318.33,5782.5 1319,6974.5C 1326.84,7087.89 1379.34,7173.39 1476.5,7231C 1519.79,7254.74 1566.12,7267.41 1615.5,7269C 2741.17,7269.67 3866.83,7269.67 4992.5,7269C 5106.84,7261.95 5193.01,7209.45 5251,7111.5C 5274.74,7068.21 5287.41,7021.88 5289,6972.5C 5289.5,5294.17 5289.67,3615.83 5289.5,1937.5C 5289.5,1937.17 5289.5,1936.83 5289.5,1936.5C 5296.15,1932.86 5302.82,1929.19 5309.5,1925.5C 5309.67,3610.17 5309.5,5294.83 5309,6979.5C 5302.23,7079.21 5260.07,7160.05 5182.5,7222C 5129.95,7261.86 5070.62,7284.19 5004.5,7289C 3870.83,7289.67 2737.17,7289.67 1603.5,7289C 1489.78,7278.26 1402.95,7224.76 1343,7128.5C 1317.66,7084.15 1302.99,7036.48 1299,6985.5C 1298.5,5790.83 1298.33,4596.17 1298.5,3401.5C 1158.24,3426.64 1018.24,3425.3 878.5,3397.5C 878.333,4597.17 878.5,5796.83 879,6996.5C 890.955,7198.85 969.789,7369.69 1115.5,7509C 1248.93,7631.41 1406.6,7698.08 1588.5,7709C 2730.5,7709.67 3872.5,7709.67 5014.5,7709C 5244.41,7694.64 5430.91,7598.14 5574,7419.5C 5669.51,7294.34 5721.18,7152.67 5729,6994.5C 5729.67,5036.17 5729.67,3077.83 5729,1119.5C 5727.31,1088.27 5723.81,1057.27 5718.5,1026.5C 5722.72,1017.05 5727.72,1008.05 5733.5,999.5C 5742.09,1038.24 5747.26,1077.57 5749,1117.5C 5749.67,3078.83 5749.67,5040.17 5749,7001.5C 5735.99,7208.4 5654.83,7382.9 5505.5,7525C 5368.71,7649.86 5207.37,7718.03 5021.5,7729.5C 3876.5,7729.5 2731.5,7729.5 1586.5,7729.5C 1357.56,7713.46 1170.4,7617.46 1025,7441.5C 923.834,7313.07 868.501,7166.73 859,7002.5C 858.833,5799.5 858.333,4596.5 857.5,3393.5C 585.201,3328.49 367.034,3183.49 203,2958.5C 77.9512,2780.53 10.1178,2582.53 -0.5,2364.5C -0.5,2334.5 -0.5,2304.5 -0.5,2274.5C 13.8396,2006.28 110.34,1772.95 289,1574.5C 444.423,1407.52 633.923,1297.85 857.5,1245.5C 858.088,1196.82 858.921,1148.16 860,1099.5C 877.359,899.302 958.525,730.469 1103.5,593C 1239.95,468.653 1400.95,400.986 1586.5,390C 2731.5,389.333 3876.5,389.333 5021.5,390C 5164.21,397.515 5294.54,441.015 5412.5,520.5 Z"/></g>
<g><path style="opacity:1" fill="#fefefe" d="M 5390.5,530.5 C 5403.72,538.723 5416.39,547.723 5428.5,557.5C 5251.02,641.731 5077.36,732.398 4907.5,829.5C 4906.83,829.5 4906.17,829.5 4905.5,829.5C 4878.83,829.5 4852.17,829.5 4825.5,829.5C 3751.5,829.333 2677.5,829.5 1603.5,830C 1549.98,833.618 1500.32,849.284 1454.5,877C 1361.26,936.905 1309.43,1022.4 1299,1133.5C 1298.5,1168.17 1298.33,1202.83 1298.5,1237.5C 1158.22,1212.36 1018.22,1213.7 878.5,1241.5C 878.333,1200.17 878.5,1158.83 879,1117.5C 890.719,936.478 957.385,779.478 1079,646.5C 1217.49,501.524 1387.32,422.691 1588.5,410C 2730.5,409.333 3872.5,409.333 5014.5,410C 5150.86,416.622 5276.19,456.789 5390.5,530.5 Z"/></g>
<g><path style="opacity:0.999" fill="#d3d0db" d="M 5412.5,520.5 C 5412.83,520.5 5413.17,520.5 5413.5,520.5C 5414.29,521.794 5415.29,522.961 5416.5,524C 5427.66,531.664 5438.66,539.498 5449.5,547.5C 5443.1,551.2 5436.43,554.533 5429.5,557.5C 5429.17,557.5 5428.83,557.5 5428.5,557.5C 5416.39,547.723 5403.72,538.723 5390.5,530.5C 5398.37,528.231 5405.7,524.898 5412.5,520.5 Z"/></g>
<g><path style="opacity:1" fill="#3c2e62" d="M 5428.5,557.5 C 5428.83,557.5 5429.17,557.5 5429.5,557.5C 5481.02,596.349 5527.02,641.016 5567.5,691.5C 5567.5,691.833 5567.5,692.167 5567.5,692.5C 5462.34,785.319 5359.01,880.319 5257.5,977.5C 5257.17,977.5 5256.83,977.5 5256.5,977.5C 5195.1,887.101 5109.43,837.934 4999.5,830C 4968.84,829.5 4938.17,829.333 4907.5,829.5C 5077.36,732.398 5251.02,641.731 5428.5,557.5 Z"/></g>
<g><path style="opacity:0.82" fill="#ffd65e" d="M 5610.5,715.5 C 5609.5,714.167 5608.5,712.833 5607.5,711.5C 5607.5,711.167 5607.5,710.833 5607.5,710.5C 5629.63,691.542 5651.63,672.376 5673.5,653C 5674.17,652.333 5674.83,652.333 5675.5,653C 5653.96,674.037 5632.3,694.87 5610.5,715.5 Z"/></g>
<g><path style="opacity:1" fill="#d3d0db" d="M 5583.5,678.5 C 5591.12,689.455 5599.12,700.122 5607.5,710.5C 5607.5,710.833 5607.5,711.167 5607.5,711.5C 5602.18,715.489 5597.18,719.822 5592.5,724.5C 5592.17,724.5 5591.83,724.5 5591.5,724.5C 5584.47,713.109 5576.47,702.442 5567.5,692.5C 5567.5,692.167 5567.5,691.833 5567.5,691.5C 5572.83,687.167 5578.17,682.833 5583.5,678.5 Z"/></g>
<g><path style="opacity:1" fill="#fefefe" d="M 5567.5,692.5 C 5576.47,702.442 5584.47,713.109 5591.5,724.5C 5485.06,818.596 5380.39,914.929 5277.5,1013.5C 5270.84,1001.51 5264.17,989.508 5257.5,977.5C 5359.01,880.319 5462.34,785.319 5567.5,692.5 Z"/></g>
<g><path style="opacity:1" fill="#d4af55" d="M 5607.5,711.5 C 5608.5,712.833 5609.5,714.167 5610.5,715.5C 5610.5,715.833 5610.5,716.167 5610.5,716.5C 5605.5,720.833 5600.83,725.5 5596.5,730.5C 5596.17,730.5 5595.83,730.5 5595.5,730.5C 5594.53,728.517 5593.53,726.517 5592.5,724.5C 5597.18,719.822 5602.18,715.489 5607.5,711.5 Z"/></g>
<g><path style="opacity:1" fill="#d4d0db" d="M 5610.5,716.5 C 5618.56,727.224 5626.22,738.224 5633.5,749.5C 5633.5,749.833 5633.5,750.167 5633.5,750.5C 5628.5,754.833 5623.83,759.5 5619.5,764.5C 5619.17,764.5 5618.83,764.5 5618.5,764.5C 5611.56,752.897 5604.23,741.564 5596.5,730.5C 5600.83,725.5 5605.5,720.833 5610.5,716.5 Z"/></g>
<g><path style="opacity:1" fill="#ffdc75" d="M 5591.5,724.5 C 5591.83,724.5 5592.17,724.5 5592.5,724.5C 5593.53,726.517 5594.53,728.517 5595.5,730.5C 5491.71,833.288 5390.04,937.955 5290.5,1044.5C 5290.17,1044.5 5289.83,1044.5 5289.5,1044.5C 5286.49,1034.13 5282.49,1024.13 5277.5,1014.5C 5277.5,1014.17 5277.5,1013.83 5277.5,1013.5C 5380.39,914.929 5485.06,818.596 5591.5,724.5 Z"/></g>
<g><path style="opacity:1" fill="#fffefe" d="M 5595.5,730.5 C 5595.83,730.5 5596.17,730.5 5596.5,730.5C 5604.23,741.564 5611.56,752.897 5618.5,764.5C 5511.02,870.981 5405.68,979.314 5302.5,1089.5C 5299.72,1074.16 5295.72,1059.16 5290.5,1044.5C 5390.04,937.955 5491.71,833.288 5595.5,730.5 Z"/></g>
<g><path style="opacity:1" fill="#d27b32" d="M 5633.5,750.5 C 5671.03,810.058 5699.7,873.725 5719.5,941.5C 5719.5,942.167 5719.5,942.833 5719.5,943.5C 5714.83,950.833 5710.17,958.167 5705.5,965.5C 5686.15,894.425 5657.48,827.425 5619.5,764.5C 5623.83,759.5 5628.5,754.833 5633.5,750.5 Z"/></g>
<g><path style="opacity:1" fill="#fca955" d="M 5618.5,764.5 C 5618.83,764.5 5619.17,764.5 5619.5,764.5C 5657.48,827.425 5686.15,894.425 5705.5,965.5C 5705.5,966.167 5705.5,966.833 5705.5,967.5C 5611.71,1128.74 5526.04,1294.41 5448.5,1464.5C 5402.45,1442.14 5356.11,1420.14 5309.5,1398.5C 5309.67,1312.17 5309.5,1225.83 5309,1139.5C 5308.73,1122.77 5306.56,1106.44 5302.5,1090.5C 5302.5,1090.17 5302.5,1089.83 5302.5,1089.5C 5405.68,979.314 5511.02,870.981 5618.5,764.5 Z"/></g>
<g><path style="opacity:1" fill="#d2cfda" d="M 4825.5,829.5 C 4852.17,829.5 4878.83,829.5 4905.5,829.5C 4894.03,836.737 4882.37,843.737 4870.5,850.5C 4844.67,849.502 4818.67,849.169 4792.5,849.5C 4803.5,842.833 4814.5,836.167 4825.5,829.5 Z"/></g>
<g><path style="opacity:0.82" fill="#11003f" d="M 4905.5,829.5 C 4906.17,829.5 4906.83,829.5 4907.5,829.5C 4938.17,829.333 4968.84,829.5 4999.5,830C 5109.43,837.934 5195.1,887.101 5256.5,977.5C 5251.83,982.5 5247.17,987.5 5242.5,992.5C 5130.51,1099.66 5021.01,1209.33 4914,1321.5C 4565.26,1690.09 4242.93,2079.09 3947,2488.5C 3612.17,2952.21 3311.17,3438.54 3044,3947.5C 2934.72,4156.39 2832.72,4368.72 2738,4584.5C 2703.73,4662.7 2671.4,4741.7 2641,4821.5C 2575.68,4999.97 2510.51,5178.47 2445.5,5357C 2445.67,5357.5 2445.83,5358 2446,5358.5C 2478.42,5305.33 2511.08,5252.33 2544,5199.5C 2568.84,5163.32 2598,5130.82 2631.5,5102C 2719.25,5029.78 2818.59,4979.12 2929.5,4950C 2944.17,4946.33 2958.83,4942.67 2973.5,4939C 3243.75,4890.91 3506.75,4817.25 3762.5,4718C 3915.02,4658.16 4062.69,4588.16 4205.5,4508C 4222.16,4504.6 4238.83,4501.6 4255.5,4499C 4208.35,4533.76 4158.69,4564.76 4106.5,4592C 4018.45,4637.86 3928.12,4678.53 3835.5,4714C 3696.52,4767.22 3555.52,4814.88 3412.5,4857C 3254.03,4904.1 3094.36,4946.76 2933.5,4985C 2773.69,5030.21 2648.53,5122.05 2558,5260.5C 2519.88,5321.83 2492.88,5387.83 2477,5458.5C 2446.34,5598.43 2437.01,5739.76 2449,5882.5C 2459.85,6000.6 2490.35,6113.26 2540.5,6220.5C 2376.3,6343.49 2224.47,6481.15 2085,6633.5C 2007.17,6718.9 1936.83,6809.9 1874,6906.5C 1902.7,6780.69 1934.37,6655.69 1969,6531.5C 2106.82,6037.03 2271.16,5551.7 2462,5075.5C 2650.69,4604.48 2865.35,4145.48 3106,3698.5C 3318.78,3304.76 3553.11,2925.43 3809,2560.5C 4007.53,2278.94 4220.53,2008.27 4448,1748.5C 4625.51,1546.64 4812.51,1353.31 5009,1168.5C 5009.67,1167.5 5009.67,1166.5 5009,1165.5C 5001.17,1156.33 4993.33,1147.17 4985.5,1138C 4984.5,1137.33 4983.5,1137.33 4982.5,1138C 4874.84,1225.22 4770.18,1316.22 4668.5,1411C 4479.81,1587.68 4300.98,1773.18 4132,1967.5C 3886.92,2251.19 3660.26,2548.52 3452,2859.5C 3193.68,3246.93 2959.35,3649.93 2749,4068.5C 2548.77,4466.85 2370.43,4874.85 2214,5292.5C 2176.96,5392.47 2141.79,5493.13 2108.5,5594.5C 2107.51,5589.69 2107.18,5584.69 2107.5,5579.5C 2108.36,5568.35 2110.2,5557.35 2113,5546.5C 2143.34,5443.65 2176.84,5341.82 2213.5,5241C 2264.38,5094.84 2273.55,4946.01 2241,4794.5C 2225.38,4737.98 2210.38,4681.31 2196,4624.5C 2141.25,4391.38 2117.59,4155.05 2125,3915.5C 2127.65,3841.68 2134.99,3768.35 2147,3695.5C 2147.82,3693.21 2148.49,3690.88 2149,3688.5C 2184.44,3859.62 2268.6,4001.12 2401.5,4113C 2427.67,4133.83 2453.83,4154.67 2480,4175.5C 2480.17,4175.17 2480.33,4174.83 2480.5,4174.5C 2461.79,4138.41 2443.62,4102.08 2426,4065.5C 2367.7,3921.65 2332.37,3772.32 2320,3617.5C 2313.24,3526.75 2314.24,3436.08 2323,3345.5C 2550.03,2950.14 2816.7,2583.47 3123,2245.5C 3346.45,2000.03 3585.61,1772.19 3840.5,1562C 3995.84,1434.3 4156.01,1313.14 4321,1198.5C 4335.33,1250.85 4355,1301.18 4380,1349.5C 4388.08,1363.33 4396.42,1377 4405,1390.5C 4422.95,1415.45 4441.28,1440.12 4460,1464.5C 4455.67,1429.2 4451.34,1393.87 4447,1358.5C 4440.6,1276.11 4441.26,1193.77 4449,1111.5C 4586.43,1019.85 4726.93,932.853 4870.5,850.5C 4882.37,843.737 4894.03,836.737 4905.5,829.5 Z"/></g>
<g><path style="opacity:0.814" fill="#fefefe" d="M 4790.5,849.5 C 4791.17,849.5 4791.83,849.5 4792.5,849.5C 4818.67,849.169 4844.67,849.502 4870.5,850.5C 4726.93,932.853 4586.43,1019.85 4449,1111.5C 4441.26,1193.77 4440.6,1276.11 4447,1358.5C 4451.34,1393.87 4455.67,1429.2 4460,1464.5C 4441.28,1440.12 4422.95,1415.45 4405,1390.5C 4396.42,1377 4388.08,1363.33 4380,1349.5C 4355,1301.18 4335.33,1250.85 4321,1198.5C 4156.01,1313.14 3995.84,1434.3 3840.5,1562C 3585.61,1772.19 3346.45,2000.03 3123,2245.5C 2816.7,2583.47 2550.03,2950.14 2323,3345.5C 2314.24,3436.08 2313.24,3526.75 2320,3617.5C 2332.37,3772.32 2367.7,3921.65 2426,4065.5C 2443.62,4102.08 2461.79,4138.41 2480.5,4174.5C 2480.33,4174.83 2480.17,4175.17 2480,4175.5C 2453.83,4154.67 2427.67,4133.83 2401.5,4113C 2268.6,4001.12 2184.44,3859.62 2149,3688.5C 2148.49,3690.88 2147.82,3693.21 2147,3695.5C 2134.99,3768.35 2127.65,3841.68 2125,3915.5C 2117.59,4155.05 2141.25,4391.38 2196,4624.5C 2210.38,4681.31 2225.38,4737.98 2241,4794.5C 2273.55,4946.01 2264.38,5094.84 2213.5,5241C 2176.84,5341.82 2143.34,5443.65 2113,5546.5C 2110.2,5557.35 2108.36,5568.35 2107.5,5579.5C 2106.35,5585.32 2106.18,5591.32 2107,5597.5C 2107.51,5596.47 2108.01,5595.47 2108.5,5594.5C 2141.79,5493.13 2176.96,5392.47 2214,5292.5C 2370.43,4874.85 2548.77,4466.85 2749,4068.5C 2959.35,3649.93 3193.68,3246.93 3452,2859.5C 3660.26,2548.52 3886.92,2251.19 4132,1967.5C 4300.98,1773.18 4479.81,1587.68 4668.5,1411C 4770.18,1316.22 4874.84,1225.22 4982.5,1138C 4983.5,1137.33 4984.5,1137.33 4985.5,1138C 4993.33,1147.17 5001.17,1156.33 5009,1165.5C 5009.67,1166.5 5009.67,1167.5 5009,1168.5C 4812.51,1353.31 4625.51,1546.64 4448,1748.5C 4220.53,2008.27 4007.53,2278.94 3809,2560.5C 3553.11,2925.43 3318.78,3304.76 3106,3698.5C 2865.35,4145.48 2650.69,4604.48 2462,5075.5C 2271.16,5551.7 2106.82,6037.03 1969,6531.5C 1934.37,6655.69 1902.7,6780.69 1874,6906.5C 1936.83,6809.9 2007.17,6718.9 2085,6633.5C 2224.47,6481.15 2376.3,6343.49 2540.5,6220.5C 2490.35,6113.26 2459.85,6000.6 2449,5882.5C 2437.01,5739.76 2446.34,5598.43 2477,5458.5C 2492.88,5387.83 2519.88,5321.83 2558,5260.5C 2648.53,5122.05 2773.69,5030.21 2933.5,4985C 3094.36,4946.76 3254.03,4904.1 3412.5,4857C 3555.52,4814.88 3696.52,4767.22 3835.5,4714C 3928.12,4678.53 4018.45,4637.86 4106.5,4592C 4158.69,4564.76 4208.35,4533.76 4255.5,4499C 4238.83,4501.6 4222.16,4504.6 4205.5,4508C 4062.69,4588.16 3915.02,4658.16 3762.5,4718C 3506.75,4817.25 3243.75,4890.91 2973.5,4939C 2958.83,4942.67 2944.17,4946.33 2929.5,4950C 2818.59,4979.12 2719.25,5029.78 2631.5,5102C 2598,5130.82 2568.84,5163.32 2544,5199.5C 2511.08,5252.33 2478.42,5305.33 2446,5358.5C 2445.83,5358 2445.67,5357.5 2445.5,5357C 2510.51,5178.47 2575.68,4999.97 2641,4821.5C 2671.4,4741.7 2703.73,4662.7 2738,4584.5C 2832.72,4368.72 2934.72,4156.39 3044,3947.5C 3311.17,3438.54 3612.17,2952.21 3947,2488.5C 4242.93,2079.09 4565.26,1690.09 4914,1321.5C 5021.01,1209.33 5130.51,1099.66 5242.5,992.5C 5249.87,1003.89 5256.2,1015.89 5261.5,1028.5C 5261.5,1028.83 5261.5,1029.17 5261.5,1029.5C 5155.44,1131.56 5051.78,1235.89 4950.5,1342.5C 4916.46,1377.54 4883.13,1413.2 4850.5,1449.5C 4837.79,1461.87 4825.79,1474.87 4814.5,1488.5C 4774.42,1530.58 4735.42,1573.58 4697.5,1617.5C 4652.39,1667.27 4608.39,1717.94 4565.5,1769.5C 4561.03,1773.79 4557.03,1778.45 4553.5,1783.5C 4518.44,1823.56 4484.11,1864.22 4450.5,1905.5C 4441.7,1915.09 4433.37,1925.09 4425.5,1935.5C 4396.15,1970.85 4367.15,2006.52 4338.5,2042.5C 4325.46,2058.21 4312.79,2074.21 4300.5,2090.5C 4273.77,2122.9 4247.77,2155.9 4222.5,2189.5C 4199.48,2218.52 4176.82,2247.86 4154.5,2277.5C 4140.46,2295.55 4126.79,2313.88 4113.5,2332.5C 4084.43,2369.91 4056.09,2407.91 4028.5,2446.5C 4021.12,2455.88 4014.12,2465.55 4007.5,2475.5C 3982.78,2507.93 3958.78,2540.93 3935.5,2574.5C 3921.92,2593.32 3908.59,2612.32 3895.5,2631.5C 3876.78,2657.55 3858.45,2683.89 3840.5,2710.5C 3815.43,2745.64 3791.09,2781.3 3767.5,2817.5C 3741.35,2855.12 3715.68,2893.12 3690.5,2931.5C 3680.58,2946.33 3670.92,2961.33 3661.5,2976.5C 3648.47,2995.54 3635.81,3014.87 3623.5,3034.5C 3598.07,3073.02 3573.41,3112.02 3549.5,3151.5C 3533.43,3175.29 3518.1,3199.62 3503.5,3224.5C 3495.6,3236.63 3487.93,3248.96 3480.5,3261.5C 3458.58,3297 3436.92,3332.67 3415.5,3368.5C 3406.75,3383.67 3397.75,3398.67 3388.5,3413.5C 3376.57,3433.7 3364.9,3454.03 3353.5,3474.5C 3332.34,3509.47 3311.68,3544.8 3291.5,3580.5C 3282.74,3595.26 3274.4,3610.26 3266.5,3625.5C 3256.34,3641.8 3246.68,3658.47 3237.5,3675.5C 3217.31,3711.21 3197.65,3747.21 3178.5,3783.5C 3162.74,3810.68 3147.74,3838.35 3133.5,3866.5C 3111.41,3906.35 3090.07,3946.68 3069.5,3987.5C 3052.99,4018.51 3036.99,4049.85 3021.5,4081.5C 3005.67,4111.15 2990.34,4141.15 2975.5,4171.5C 2958.9,4205.04 2942.56,4238.71 2926.5,4272.5C 2912.66,4300.19 2899.32,4328.19 2886.5,4356.5C 2871.66,4386.86 2857.32,4417.52 2843.5,4448.5C 2828.56,4480.71 2813.89,4513.05 2799.5,4545.5C 2787.5,4572.83 2775.5,4600.17 2763.5,4627.5C 2749.83,4660.17 2736.17,4692.83 2722.5,4725.5C 2708.61,4758.61 2695.28,4791.94 2682.5,4825.5C 2674.3,4848.1 2666.3,4870.77 2658.5,4893.5C 2634.47,4957.25 2610.8,5021.25 2587.5,5085.5C 2587.83,5085.83 2588.17,5086.17 2588.5,5086.5C 2648.45,5032.16 2715.78,4988.83 2790.5,4956.5C 2816.94,4944.78 2843.94,4934.45 2871.5,4925.5C 2927.07,4907.44 2983.74,4893.77 3041.5,4884.5C 3097.08,4873.65 3152.42,4861.65 3207.5,4848.5C 3244.35,4839.79 3281.01,4830.45 3317.5,4820.5C 3374.63,4805.72 3431.3,4789.38 3487.5,4771.5C 3535.11,4756.63 3582.44,4740.96 3629.5,4724.5C 3673.73,4708.42 3717.73,4691.76 3761.5,4674.5C 3798.08,4660.08 3834.41,4645.08 3870.5,4629.5C 3944.05,4597.73 4016.39,4563.23 4087.5,4526C 4006.88,4557.71 3925.54,4587.54 3843.5,4615.5C 3802.74,4628.53 3762.07,4641.53 3721.5,4654.5C 3671.79,4668.68 3622.12,4682.68 3572.5,4696.5C 3518.44,4710.18 3464.44,4723.51 3410.5,4736.5C 3349.01,4750.07 3287.34,4762.07 3225.5,4772.5C 3173.94,4780.23 3122.27,4785.56 3070.5,4788.5C 3036.44,4790.16 3002.44,4789.33 2968.5,4786C 2943.51,4783.8 2919.51,4777.8 2896.5,4768C 2891.11,4764.98 2886.11,4761.48 2881.5,4757.5C 2888.8,4738.58 2895.8,4719.58 2902.5,4700.5C 2913.87,4673.4 2924.87,4646.07 2935.5,4618.5C 2949.34,4586.32 2963.01,4553.99 2976.5,4521.5C 2991.4,4488.69 3006.07,4455.69 3020.5,4422.5C 3032.82,4395.91 3045.15,4369.24 3057.5,4342.5C 3075.07,4306.36 3092.4,4270.02 3109.5,4233.5C 3123.4,4206.03 3137.07,4178.36 3150.5,4150.5C 3167.5,4117.17 3184.5,4083.84 3201.5,4050.5C 3271.06,4037.19 3340.4,4022.85 3409.5,4007.5C 3458.97,3996.13 3508.31,3984.13 3557.5,3971.5C 3635.71,3951.36 3713.37,3929.2 3790.5,3905C 3660.26,3918.74 3529.59,3924.58 3398.5,3922.5C 3346.46,3921.95 3294.46,3920.29 3242.5,3917.5C 3228.5,3917.17 3214.5,3916.67 3200.5,3916C 3208.86,3913.94 3217.19,3911.77 3225.5,3909.5C 3270.32,3899.46 3314.98,3888.8 3359.5,3877.5C 3418.75,3863.02 3477.41,3846.35 3535.5,3827.5C 3566.24,3817.03 3596.9,3806.37 3627.5,3795.5C 3647.25,3788.03 3666.91,3780.36 3686.5,3772.5C 3738.39,3751.72 3789.39,3729.05 3839.5,3704.5C 3865.61,3692.28 3891.27,3679.28 3916.5,3665.5C 3929.56,3658.98 3942.22,3651.98 3954.5,3644.5C 3997.29,3621.61 4038.96,3596.94 4079.5,3570.5C 4101.88,3556.32 4123.88,3541.65 4145.5,3526.5C 4170.75,3509.58 4195.41,3491.91 4219.5,3473.5C 4260.98,3442.69 4300.98,3410.03 4339.5,3375.5C 4362.21,3356.64 4384.21,3336.8 4405.5,3316C 4368.98,3328.78 4332.31,3341.28 4295.5,3353.5C 4228.99,3373.6 4161.99,3391.6 4094.5,3407.5C 4047.53,3417.83 4000.53,3427.49 3953.5,3436.5C 3917.39,3442.52 3881.39,3448.52 3845.5,3454.5C 3772.54,3464.61 3699.54,3473.28 3626.5,3480.5C 3594.99,3482.49 3563.66,3484.82 3532.5,3487.5C 3514.48,3488.03 3496.48,3488.53 3478.5,3489C 3482.31,3481.22 3485.97,3473.39 3489.5,3465.5C 3497.34,3450.48 3504.68,3435.15 3511.5,3419.5C 3530.15,3382.21 3548.81,3344.87 3567.5,3307.5C 3575.34,3293.82 3582.67,3279.82 3589.5,3265.5C 3603.67,3240.49 3617.34,3215.16 3630.5,3189.5C 3653.08,3150 3675.42,3110.34 3697.5,3070.5C 3709.67,3050.84 3721.33,3030.84 3732.5,3010.5C 3742.25,2996.01 3751.25,2981.01 3759.5,2965.5C 3783.83,2926.17 3808.16,2886.84 3832.5,2847.5C 3855.49,2812.2 3878.49,2776.87 3901.5,2741.5C 3920.33,2714.52 3938.66,2687.19 3956.5,2659.5C 3969.98,2641.22 3982.98,2622.55 3995.5,2603.5C 4018.91,2570.36 4042.58,2537.36 4066.5,2504.5C 4073.73,2495.05 4080.73,2485.38 4087.5,2475.5C 4115.8,2438.19 4144.14,2400.86 4172.5,2363.5C 4187.47,2344.86 4202.47,2326.19 4217.5,2307.5C 4218.63,2306.88 4219.63,2306.04 4220.5,2305C 4267.4,2291.97 4313.74,2277.47 4359.5,2261.5C 4411.32,2244.12 4462.32,2224.79 4512.5,2203.5C 4542.36,2191.9 4571.69,2179.23 4600.5,2165.5C 4646.62,2145.44 4691.95,2123.77 4736.5,2100.5C 4795.6,2070.46 4853.6,2038.62 4910.5,2005C 4828.03,2026.42 4744.69,2044.26 4660.5,2058.5C 4595.77,2069.46 4530.77,2078.46 4465.5,2085.5C 4463.16,2072.16 4460.83,2058.82 4458.5,2045.5C 4496.08,2035.75 4533.08,2024.42 4569.5,2011.5C 4590.62,2005.13 4611.29,1997.8 4631.5,1989.5C 4690.09,1968.04 4747.09,1943.04 4802.5,1914.5C 4814.15,1909.34 4825.48,1903.67 4836.5,1897.5C 4897.82,1865.77 4956.49,1830.1 5012.5,1790.5C 5074.87,1748.42 5132.87,1701.42 5186.5,1649.5C 5087.35,1688.95 4984.68,1714.62 4878.5,1726.5C 4820.37,1734.19 4762.03,1736.52 4703.5,1733.5C 4724.19,1707.15 4744.86,1680.81 4765.5,1654.5C 4802.17,1608.83 4838.83,1563.17 4875.5,1517.5C 4887.54,1504.43 4898.87,1490.76 4909.5,1476.5C 4940.14,1440.19 4970.8,1403.86 5001.5,1367.5C 5079.47,1277.3 5158.64,1187.97 5239,1099.5C 5250.7,1086.97 5262.53,1074.63 5274.5,1062.5C 5280.08,1077.25 5283.74,1092.59 5285.5,1108.5C 5225.33,1173 5166.66,1238.66 5109.5,1305.5C 5086.16,1331.51 5063.16,1357.85 5040.5,1384.5C 5020.49,1407.18 5000.82,1430.18 4981.5,1453.5C 4943.79,1498.54 4906.46,1543.88 4869.5,1589.5C 4841.32,1623.52 4813.65,1658.02 4786.5,1693C 4856.22,1690.25 4925.22,1681.59 4993.5,1667C 5002.02,1665.04 5010.35,1662.87 5018.5,1660.5C 5097.97,1642.9 5173.63,1615.24 5245.5,1577.5C 5260.19,1569.15 5274.86,1560.82 5289.5,1552.5C 5289.5,1568.5 5289.5,1584.5 5289.5,1600.5C 5289.5,1600.83 5289.5,1601.17 5289.5,1601.5C 5249.77,1646.57 5207.1,1688.57 5161.5,1727.5C 5137.41,1747.93 5112.74,1767.59 5087.5,1786.5C 5060.64,1806.09 5033.64,1825.42 5006.5,1844.5C 4942.1,1886.05 4875.44,1924.05 4806.5,1958.5C 4764.92,1978.62 4722.59,1997.12 4679.5,2014C 4736.05,2004.39 4792.05,1992.56 4847.5,1978.5C 4936.64,1957.68 5022.97,1928.68 5106.5,1891.5C 5142.35,1876.74 5178.01,1861.74 5213.5,1846.5C 5214.58,1846.46 5215.58,1846.13 5216.5,1845.5C 5217.46,1845.97 5217.46,1846.64 5216.5,1847.5C 5189.27,1865.73 5162.61,1884.73 5136.5,1904.5C 5102.34,1928.48 5068.01,1952.31 5033.5,1976C 5006.81,1993.35 4979.81,2010.18 4952.5,2026.5C 4885.76,2066.54 4817.76,2104.54 4748.5,2140.5C 4681.6,2173.79 4613.94,2205.12 4545.5,2234.5C 4479,2261.75 4411.67,2286.75 4343.5,2309.5C 4338.84,2310.89 4334.17,2312.39 4329.5,2314C 4334.45,2313.76 4339.11,2312.6 4343.5,2310.5C 4415.75,2290.31 4487.08,2267.31 4557.5,2241.5C 4630.59,2214.12 4702.93,2184.79 4774.5,2153.5C 4849.46,2120.41 4923.46,2085.41 4996.5,2048.5C 5067.25,2013.63 5136.91,1976.96 5205.5,1938.5C 5230.41,1924.93 5255.07,1910.93 5279.5,1896.5C 5281.9,1890.97 5283.9,1885.3 5285.5,1879.5C 5286.66,1876.02 5287.99,1872.68 5289.5,1869.5C 5289.5,1891.83 5289.5,1914.17 5289.5,1936.5C 5289.5,1936.83 5289.5,1937.17 5289.5,1937.5C 5233.5,1969.84 5176.84,2001.17 5119.5,2031.5C 5101.63,2069.9 5084.3,2108.57 5067.5,2147.5C 5042.99,2159.59 5018.32,2171.42 4993.5,2183C 5078.23,2165.32 5161.57,2142.65 5243.5,2115C 5085.44,2428.26 4942.61,2748.1 4815,3074.5C 4751.92,3236.42 4695.58,3400.75 4646,3567.5C 4619.23,3659.92 4596.23,3753.25 4577,3847.5C 4542.55,3877.8 4506.38,3905.8 4468.5,3931.5C 4459.87,3963.68 4451.71,3996.01 4444,4028.5C 4339.38,4122.75 4224.54,4202.59 4099.5,4268C 4022.54,4307.98 3943.54,4343.32 3862.5,4374C 4046.33,4371.47 4229,4355.47 4410.5,4326C 4461.4,4302.22 4512.07,4277.88 4562.5,4253C 4565.5,4251.65 4568.5,4250.65 4571.5,4250C 4518.45,4292.71 4465.12,4335.05 4411.5,4377C 4380.19,4399.66 4348.19,4421.32 4315.5,4442C 4343.62,4435.24 4371.62,4427.74 4399.5,4419.5C 4399.83,4419.83 4400.17,4420.17 4400.5,4420.5C 4370.23,4452.61 4338.56,4483.11 4305.5,4512C 4255.92,4551.14 4203.25,4585.81 4147.5,4616C 4053.55,4666.31 3956.89,4710.64 3857.5,4749C 3678.06,4817.59 3495.73,4877.59 3310.5,4929C 3189.39,4962.7 3067.72,4994.37 2945.5,5024C 2781.04,5070.17 2656.88,5167.34 2573,5315.5C 2538.65,5380.55 2516.32,5449.55 2506,5522.5C 2483.04,5646.47 2478.04,5771.14 2491,5896.5C 2503.75,6014.08 2537.09,6125.42 2591,6230.5C 2591.67,6231.83 2591.67,6233.17 2591,6234.5C 2404.33,6370.79 2234,6526.12 2080,6700.5C 2021.3,6768.6 1966.97,6839.93 1917,6914.5C 1897.58,6945 1878.91,6976 1861,7007.5C 1833,7061.5 1805,7115.5 1777,7169.5C 1808.74,7000.48 1846.74,6832.82 1891,6666.5C 2013.01,6205.81 2158.68,5752.81 2328,5307.5C 2525.91,4784.65 2755.24,4275.65 3016,3780.5C 3219.72,3394.79 3443.72,3022.46 3688,2663.5C 3897.86,2356.58 4124.2,2061.91 4367,1779.5C 4400.98,1740.68 4435.15,1702.02 4469.5,1663.5C 4469.33,1663.17 4469.17,1662.83 4469,1662.5C 4274.7,1861.5 4091.7,2069.5 3920,2286.5C 3687.51,2581.76 3472.51,2889.42 3275,3209.5C 3032.69,3603.03 2813.69,4010.7 2618,4432.5C 2459.08,4773.67 2316.75,5121.67 2191,5476.5C 2161.45,5560.97 2133.62,5645.97 2107.5,5731.5C 2093.8,5704.77 2082.3,5677.1 2073,5648.5C 2063.81,5609.66 2064.47,5570.99 2075,5532.5C 2108.13,5421.1 2144.47,5310.77 2184,5201.5C 2228.38,5057.28 2231.05,4912.28 2192,4766.5C 2096.47,4438.57 2064.47,4104.57 2096,3764.5C 2099.03,3729.96 2105.03,3695.96 2114,3662.5C 2121.05,3640.02 2130.05,3618.36 2141,3597.5C 2152.04,3586.63 2162.87,3575.63 2173.5,3564.5C 2179.01,3653.87 2198.84,3739.87 2233,3822.5C 2265.29,3897.48 2309.29,3964.48 2365,4023.5C 2286.46,3799 2259.46,3568.34 2284,3331.5C 2476.86,2994.69 2698.53,2678.36 2949,2382.5C 3214.68,2070.48 3505.52,1784.65 3821.5,1525C 3990.99,1386.33 4165.99,1255.16 4346.5,1131.5C 4356.77,1178.91 4370.6,1225.24 4388,1270.5C 4392.45,1282.07 4397.45,1293.4 4403,1304.5C 4400.3,1232.31 4402.96,1160.31 4411,1088.5C 4535.12,1005.18 4661.62,925.516 4790.5,849.5 Z"/></g>
<g><path style="opacity:1" fill="#d3d0db" d="M 5719.5,943.5 C 5725.24,961.454 5729.91,979.788 5733.5,998.5C 5733.5,998.833 5733.5,999.167 5733.5,999.5C 5727.72,1008.05 5722.72,1017.05 5718.5,1026.5C 5714.93,1006.77 5710.6,987.104 5705.5,967.5C 5705.5,966.833 5705.5,966.167 5705.5,965.5C 5710.17,958.167 5714.83,950.833 5719.5,943.5 Z"/></g>
<g><path style="opacity:1" fill="#fefefe" d="M 5705.5,967.5 C 5710.6,987.104 5714.93,1006.77 5718.5,1026.5C 5723.81,1057.27 5727.31,1088.27 5729,1119.5C 5729.67,3077.83 5729.67,5036.17 5729,6994.5C 5721.18,7152.67 5669.51,7294.34 5574,7419.5C 5430.91,7598.14 5244.41,7694.64 5014.5,7709C 3872.5,7709.67 2730.5,7709.67 1588.5,7709C 1406.6,7698.08 1248.93,7631.41 1115.5,7509C 969.789,7369.69 890.955,7198.85 879,6996.5C 878.5,5796.83 878.333,4597.17 878.5,3397.5C 1018.24,3425.3 1158.24,3426.64 1298.5,3401.5C 1298.33,4596.17 1298.5,5790.83 1299,6985.5C 1302.99,7036.48 1317.66,7084.15 1343,7128.5C 1402.95,7224.76 1489.78,7278.26 1603.5,7289C 2737.17,7289.67 3870.83,7289.67 5004.5,7289C 5070.62,7284.19 5129.95,7261.86 5182.5,7222C 5260.07,7160.05 5302.23,7079.21 5309,6979.5C 5309.5,5294.83 5309.67,3610.17 5309.5,1925.5C 5309.5,1887.5 5309.5,1849.5 5309.5,1811.5C 5309.5,1810.83 5309.5,1810.17 5309.5,1809.5C 5328.36,1757.27 5348.02,1705.27 5368.5,1653.5C 5375.23,1637.65 5381.56,1621.65 5387.5,1605.5C 5407.62,1558.49 5427.95,1511.49 5448.5,1464.5C 5526.04,1294.41 5611.71,1128.74 5705.5,967.5 Z"/></g>
<g><path style="opacity:1" fill="#d4d1db" d="M 5256.5,977.5 C 5256.83,977.5 5257.17,977.5 5257.5,977.5C 5264.17,989.508 5270.84,1001.51 5277.5,1013.5C 5277.5,1013.83 5277.5,1014.17 5277.5,1014.5C 5272.46,1019.54 5267.13,1024.21 5261.5,1028.5C 5256.2,1015.89 5249.87,1003.89 5242.5,992.5C 5247.17,987.5 5251.83,982.5 5256.5,977.5 Z"/></g>
<g><path style="opacity:1" fill="#d4ae52" d="M 5277.5,1014.5 C 5282.49,1024.13 5286.49,1034.13 5289.5,1044.5C 5285.21,1050.46 5280.21,1055.8 5274.5,1060.5C 5271.11,1049.65 5266.78,1039.32 5261.5,1029.5C 5261.5,1029.17 5261.5,1028.83 5261.5,1028.5C 5267.13,1024.21 5272.46,1019.54 5277.5,1014.5 Z"/></g>
<g><path style="opacity:0.82" fill="#ffd356" d="M 5261.5,1029.5 C 5266.78,1039.32 5271.11,1049.65 5274.5,1060.5C 5274.5,1061.17 5274.5,1061.83 5274.5,1062.5C 5262.53,1074.63 5250.7,1086.97 5239,1099.5C 5158.64,1187.97 5079.47,1277.3 5001.5,1367.5C 4984.85,1359.85 4968.19,1352.18 4951.5,1344.5C 4950.7,1344.04 4950.37,1343.38 4950.5,1342.5C 5051.78,1235.89 5155.44,1131.56 5261.5,1029.5 Z"/></g>
<g><path style="opacity:1" fill="#d4d1db" d="M 5289.5,1044.5 C 5289.83,1044.5 5290.17,1044.5 5290.5,1044.5C 5295.72,1059.16 5299.72,1074.16 5302.5,1089.5C 5302.5,1089.83 5302.5,1090.17 5302.5,1090.5C 5296.82,1096.18 5291.49,1102.18 5286.5,1108.5C 5286.17,1108.5 5285.83,1108.5 5285.5,1108.5C 5283.74,1092.59 5280.08,1077.25 5274.5,1062.5C 5274.5,1061.83 5274.5,1061.17 5274.5,1060.5C 5280.21,1055.8 5285.21,1050.46 5289.5,1044.5 Z"/></g>
<g><path style="opacity:1" fill="#d27a32" d="M 5302.5,1090.5 C 5306.56,1106.44 5308.73,1122.77 5309,1139.5C 5309.5,1225.83 5309.67,1312.17 5309.5,1398.5C 5309.5,1445.5 5309.5,1492.5 5309.5,1539.5C 5309.5,1539.83 5309.5,1540.17 5309.5,1540.5C 5302.81,1544.18 5296.14,1547.85 5289.5,1551.5C 5289.5,1535.17 5289.5,1518.83 5289.5,1502.5C 5289.5,1464.5 5289.5,1426.5 5289.5,1388.5C 5289.67,1304.17 5289.5,1219.83 5289,1135.5C 5288.25,1126.49 5287.41,1117.49 5286.5,1108.5C 5291.49,1102.18 5296.82,1096.18 5302.5,1090.5 Z"/></g>
<g><path style="opacity:0.82" fill="#fc962f" d="M 5285.5,1108.5 C 5285.83,1108.5 5286.17,1108.5 5286.5,1108.5C 5287.41,1117.49 5288.25,1126.49 5289,1135.5C 5289.5,1219.83 5289.67,1304.17 5289.5,1388.5C 5229.49,1360.83 5169.49,1333.16 5109.5,1305.5C 5166.66,1238.66 5225.33,1173 5285.5,1108.5 Z"/></g>
<g><path style="opacity:0.82" fill="#fd9330" d="M 5109.5,1305.5 C 5169.49,1333.16 5229.49,1360.83 5289.5,1388.5C 5289.5,1426.5 5289.5,1464.5 5289.5,1502.5C 5206.77,1464.03 5124.11,1425.37 5041.5,1386.5C 5040.7,1386.04 5040.37,1385.38 5040.5,1384.5C 5063.16,1357.85 5086.16,1331.51 5109.5,1305.5 Z"/></g>
<g><path style="opacity:0.82" fill="#ffd059" d="M 4950.5,1342.5 C 4950.37,1343.38 4950.7,1344.04 4951.5,1344.5C 4968.19,1352.18 4984.85,1359.85 5001.5,1367.5C 4970.8,1403.86 4940.14,1440.19 4909.5,1476.5C 4889.95,1467.22 4870.28,1458.22 4850.5,1449.5C 4883.13,1413.2 4916.46,1377.54 4950.5,1342.5 Z"/></g>
<g><path style="opacity:0.82" fill="#fc9032" d="M 5040.5,1384.5 C 5040.37,1385.38 5040.7,1386.04 5041.5,1386.5C 5124.11,1425.37 5206.77,1464.03 5289.5,1502.5C 5289.5,1518.83 5289.5,1535.17 5289.5,1551.5C 5289.5,1551.83 5289.5,1552.17 5289.5,1552.5C 5274.86,1560.82 5260.19,1569.15 5245.5,1577.5C 5157.81,1535.65 5069.81,1494.32 4981.5,1453.5C 5000.82,1430.18 5020.49,1407.18 5040.5,1384.5 Z"/></g>
<g><path style="opacity:1" fill="#fda655" d="M 5309.5,1398.5 C 5356.11,1420.14 5402.45,1442.14 5448.5,1464.5C 5427.95,1511.49 5407.62,1558.49 5387.5,1605.5C 5362.59,1594.2 5337.92,1582.54 5313.5,1570.5C 5328.48,1551.19 5343.48,1531.85 5358.5,1512.5C 5358.33,1512.17 5358.17,1511.83 5358,1511.5C 5342.02,1521.24 5325.86,1530.57 5309.5,1539.5C 5309.5,1492.5 5309.5,1445.5 5309.5,1398.5 Z"/></g>
<g><path style="opacity:1" fill="#f4475f" d="M 1092.5,1399.5 C 1092.5,2012.83 1092.5,2626.17 1092.5,3239.5C 1065.77,3239.34 1039.1,3238 1012.5,3235.5C 1012.5,2624.83 1012.5,2014.17 1012.5,1403.5C 1039.1,1401 1065.77,1399.66 1092.5,1399.5 Z"/></g>
<g><path style="opacity:1" fill="#f44b5d" d="M 1092.5,1399.5 C 1095.17,1399.5 1097.83,1399.5 1100.5,1399.5C 1100.5,2012.83 1100.5,2626.17 1100.5,3239.5C 1097.83,3239.5 1095.17,3239.5 1092.5,3239.5C 1092.5,2626.17 1092.5,2012.83 1092.5,1399.5 Z"/></g>
<g><path style="opacity:1" fill="#f54e5b" d="M 1100.5,1399.5 C 1130.43,1399.24 1160.1,1400.91 1189.5,1404.5C 1188.17,1709.17 1187.5,2014.17 1187.5,2319.5C 1187.5,2624.83 1188.17,2929.83 1189.5,3234.5C 1160.1,3238.09 1130.43,3239.76 1100.5,3239.5C 1100.5,2626.17 1100.5,2012.83 1100.5,1399.5 Z"/></g>
<g><path style="opacity:1" fill="#f34262" d="M 1012.5,1403.5 C 1012.5,2014.17 1012.5,2624.83 1012.5,3235.5C 1000.49,3234.23 988.492,3232.89 976.5,3231.5C 975.791,3230.6 974.791,3230.26 973.5,3230.5C 973.5,2623.17 973.5,2015.83 973.5,1408.5C 974.791,1408.74 975.791,1408.4 976.5,1407.5C 988.492,1406.11 1000.49,1404.77 1012.5,1403.5 Z"/></g>
<g><path style="opacity:1" fill="#f55358" d="M 1189.5,1404.5 C 1201.94,1404.87 1214.28,1406.21 1226.5,1408.5C 1226.5,2015.83 1226.5,2623.17 1226.5,3230.5C 1214.25,3232.56 1201.92,3233.9 1189.5,3234.5C 1188.17,2929.83 1187.5,2624.83 1187.5,2319.5C 1187.5,2014.17 1188.17,1709.17 1189.5,1404.5 Z"/></g>
<g><path style="opacity:1" fill="#f34064" d="M 976.5,1407.5 C 975.791,1408.4 974.791,1408.74 973.5,1408.5C 973.5,2015.83 973.5,2623.17 973.5,3230.5C 974.791,3230.26 975.791,3230.6 976.5,3231.5C 962.11,3229.29 947.776,3226.95 933.5,3224.5C 933.5,2621.17 933.5,2017.83 933.5,1414.5C 947.776,1412.05 962.11,1409.71 976.5,1407.5 Z"/></g>
<g><path style="opacity:1" fill="#f55556" d="M 1226.5,1408.5 C 1241.09,1410.11 1255.43,1412.44 1269.5,1415.5C 1268.5,1415.5 1267.5,1415.5 1266.5,1415.5C 1266.5,2018.17 1266.5,2620.83 1266.5,3223.5C 1267.5,3223.5 1268.5,3223.5 1269.5,3223.5C 1255.43,3226.56 1241.09,3228.89 1226.5,3230.5C 1226.5,2623.17 1226.5,2015.83 1226.5,1408.5 Z"/></g>
<g><path style="opacity:1" fill="#f33d65" d="M 933.5,1414.5 C 933.5,2017.83 933.5,2621.17 933.5,3224.5C 925.281,3223.32 917.281,3221.66 909.5,3219.5C 909.5,2619.5 909.5,2019.5 909.5,1419.5C 917.281,1417.34 925.281,1415.68 933.5,1414.5 Z"/></g>
<g><path style="opacity:1" fill="#f65a54" d="M 1269.5,1415.5 C 1295.34,1419.96 1320.67,1425.96 1345.5,1433.5C 1345.5,2024.17 1345.5,2614.83 1345.5,3205.5C 1320.65,3213.04 1295.32,3219.04 1269.5,3223.5C 1268.5,3223.5 1267.5,3223.5 1266.5,3223.5C 1266.5,2620.83 1266.5,2018.17 1266.5,1415.5C 1267.5,1415.5 1268.5,1415.5 1269.5,1415.5 Z"/></g>
<g><path style="opacity:1" fill="#f23a67" d="M 909.5,1419.5 C 909.5,2019.5 909.5,2619.5 909.5,3219.5C 890.886,3216.26 872.553,3211.93 854.5,3206.5C 854.5,2615.17 854.5,2023.83 854.5,1432.5C 872.553,1427.07 890.886,1422.74 909.5,1419.5 Z"/></g>
<g><path style="opacity:1" fill="#f23769" d="M 854.5,1432.5 C 854.5,2023.83 854.5,2615.17 854.5,3206.5C 840.972,3203.1 827.638,3199.1 814.5,3194.5C 814.5,2611.17 814.5,2027.83 814.5,1444.5C 827.638,1439.9 840.972,1435.9 854.5,1432.5 Z"/></g>
<g><path style="opacity:1" fill="#f65d51" d="M 1345.5,1433.5 C 1350.91,1434.52 1356.24,1435.85 1361.5,1437.5C 1361.5,2025.5 1361.5,2613.5 1361.5,3201.5C 1356.24,3203.15 1350.91,3204.48 1345.5,3205.5C 1345.5,2614.83 1345.5,2024.17 1345.5,1433.5 Z"/></g>
<g><path style="opacity:1" fill="#f7604f" d="M 1361.5,1437.5 C 1386.01,1444.67 1410.01,1453 1433.5,1462.5C 1432.17,2033.83 1432.17,2605.17 1433.5,3176.5C 1410.01,3186 1386.01,3194.33 1361.5,3201.5C 1361.5,2613.5 1361.5,2025.5 1361.5,1437.5 Z"/></g>
<g><path style="opacity:1" fill="#f2336b" d="M 814.5,1444.5 C 814.5,2027.83 814.5,2611.17 814.5,3194.5C 795.808,3188.6 777.474,3181.94 759.5,3174.5C 759.5,2604.5 759.5,2034.5 759.5,1464.5C 777.474,1457.06 795.808,1450.4 814.5,1444.5 Z"/></g>
<g><path style="opacity:0.82" fill="#ffcd5d" d="M 4850.5,1449.5 C 4870.28,1458.22 4889.95,1467.22 4909.5,1476.5C 4898.87,1490.76 4887.54,1504.43 4875.5,1517.5C 4854.98,1508.07 4834.65,1498.41 4814.5,1488.5C 4825.79,1474.87 4837.79,1461.87 4850.5,1449.5 Z"/></g>
<g><path style="opacity:0.82" fill="#fc8c35" d="M 4981.5,1453.5 C 5069.81,1494.32 5157.81,1535.65 5245.5,1577.5C 5173.63,1615.24 5097.97,1642.9 5018.5,1660.5C 4968.68,1637.09 4919.01,1613.42 4869.5,1589.5C 4906.46,1543.88 4943.79,1498.54 4981.5,1453.5 Z"/></g>
<g><path style="opacity:1" fill="#f7664c" d="M 1433.5,1462.5 C 1460.41,1472.24 1486.41,1483.91 1511.5,1497.5C 1511.5,2045.5 1511.5,2593.5 1511.5,3141.5C 1486.41,3155.09 1460.41,3166.76 1433.5,3176.5C 1432.17,2605.17 1432.17,2033.83 1433.5,1462.5 Z"/></g>
<g><path style="opacity:1" fill="#f12f6e" d="M 759.5,1464.5 C 759.5,2034.5 759.5,2604.5 759.5,3174.5C 735.172,3165.17 711.505,3154.5 688.5,3142.5C 688.5,2593.83 688.5,2045.17 688.5,1496.5C 711.505,1484.5 735.172,1473.83 759.5,1464.5 Z"/></g>
<g><path style="opacity:0.82" fill="#ffca60" d="M 4814.5,1488.5 C 4834.65,1498.41 4854.98,1508.07 4875.5,1517.5C 4838.83,1563.17 4802.17,1608.83 4765.5,1654.5C 4744.55,1643.69 4723.55,1632.86 4702.5,1622C 4700.31,1620.93 4698.64,1619.43 4697.5,1617.5C 4735.42,1573.58 4774.42,1530.58 4814.5,1488.5 Z"/></g>
<g><path style="opacity:1" fill="#f12b70" d="M 688.5,1496.5 C 688.5,2045.17 688.5,2593.83 688.5,3142.5C 682.883,3140.36 677.55,3137.69 672.5,3134.5C 672.5,2591.17 672.5,2047.83 672.5,1504.5C 677.55,1501.31 682.883,1498.64 688.5,1496.5 Z"/></g>
<g><path style="opacity:1" fill="#f76949" d="M 1511.5,1497.5 C 1517.21,1499.61 1522.54,1502.28 1527.5,1505.5C 1527.5,2048.17 1527.5,2590.83 1527.5,3133.5C 1522.48,3136.67 1517.15,3139.34 1511.5,3141.5C 1511.5,2593.5 1511.5,2045.5 1511.5,1497.5 Z"/></g>
<g><path style="opacity:1" fill="#f12872" d="M 672.5,1504.5 C 672.5,2047.83 672.5,2591.17 672.5,3134.5C 644.974,3120.58 618.641,3104.91 593.5,3087.5C 593.5,2575.5 593.5,2063.5 593.5,1551.5C 618.641,1534.09 644.974,1518.42 672.5,1504.5 Z"/></g>
<g><path style="opacity:1" fill="#f86d48" d="M 1527.5,1505.5 C 1555.14,1519.18 1581.48,1534.85 1606.5,1552.5C 1606.5,2063.83 1606.5,2575.17 1606.5,3086.5C 1581.48,3104.15 1555.14,3119.82 1527.5,3133.5C 1527.5,2590.83 1527.5,2048.17 1527.5,1505.5 Z"/></g>
<g><path style="opacity:1" fill="#fffdfb" d="M 5313.5,1570.5 C 5312.53,1572.14 5311.19,1573.47 5309.5,1574.5C 5309.5,1563.17 5309.5,1551.83 5309.5,1540.5C 5309.5,1540.17 5309.5,1539.83 5309.5,1539.5C 5325.86,1530.57 5342.02,1521.24 5358,1511.5C 5358.17,1511.83 5358.33,1512.17 5358.5,1512.5C 5343.48,1531.85 5328.48,1551.19 5313.5,1570.5 Z"/></g>
<g><path style="opacity:1" fill="#d4d0da" d="M 5309.5,1540.5 C 5309.5,1551.83 5309.5,1563.17 5309.5,1574.5C 5309.5,1575.17 5309.5,1575.83 5309.5,1576.5C 5302.46,1584.21 5295.79,1592.21 5289.5,1600.5C 5289.5,1584.5 5289.5,1568.5 5289.5,1552.5C 5289.5,1552.17 5289.5,1551.83 5289.5,1551.5C 5296.14,1547.85 5302.81,1544.18 5309.5,1540.5 Z"/></g>
<g><path style="opacity:1" fill="#f02375" d="M 593.5,1551.5 C 593.5,2063.5 593.5,2575.5 593.5,3087.5C 579.779,3078.65 566.446,3069.31 553.5,3059.5C 553.5,2566.17 553.5,2072.83 553.5,1579.5C 566.446,1569.69 579.779,1560.35 593.5,1551.5 Z"/></g>
<g><path style="opacity:1" fill="#f87245" d="M 1606.5,1552.5 C 1620.67,1560.67 1634,1570.01 1646.5,1580.5C 1646.5,2073.17 1646.5,2565.83 1646.5,3058.5C 1634,3068.99 1620.67,3078.33 1606.5,3086.5C 1606.5,2575.17 1606.5,2063.83 1606.5,1552.5 Z"/></g>
<g><path style="opacity:1" fill="#fda358" d="M 5313.5,1570.5 C 5337.92,1582.54 5362.59,1594.2 5387.5,1605.5C 5381.56,1621.65 5375.23,1637.65 5368.5,1653.5C 5348.96,1644.23 5329.29,1635.23 5309.5,1626.5C 5309.5,1609.83 5309.5,1593.17 5309.5,1576.5C 5309.5,1575.83 5309.5,1575.17 5309.5,1574.5C 5311.19,1573.47 5312.53,1572.14 5313.5,1570.5 Z"/></g>
<g><path style="opacity:1" fill="#d17237" d="M 5309.5,1576.5 C 5309.5,1593.17 5309.5,1609.83 5309.5,1626.5C 5309.5,1687.5 5309.5,1748.5 5309.5,1809.5C 5309.5,1810.17 5309.5,1810.83 5309.5,1811.5C 5302.55,1829.73 5295.89,1848.06 5289.5,1866.5C 5289.5,1839.83 5289.5,1813.17 5289.5,1786.5C 5289.5,1724.83 5289.5,1663.17 5289.5,1601.5C 5289.5,1601.17 5289.5,1600.83 5289.5,1600.5C 5295.79,1592.21 5302.46,1584.21 5309.5,1576.5 Z"/></g>
<g><path style="opacity:1" fill="#f02177" d="M 553.5,1579.5 C 553.5,2072.83 553.5,2566.17 553.5,3059.5C 539.571,3049.9 526.238,3039.57 513.5,3028.5C 513.5,2555.83 513.5,2083.17 513.5,1610.5C 526.238,1599.43 539.571,1589.1 553.5,1579.5 Z"/></g>
<g><path style="opacity:1" fill="#f87443" d="M 1646.5,1580.5 C 1655.38,1586.11 1663.71,1592.44 1671.5,1599.5C 1670.17,2079.5 1670.17,2559.5 1671.5,3039.5C 1663.71,3046.56 1655.38,3052.89 1646.5,3058.5C 1646.5,2565.83 1646.5,2073.17 1646.5,1580.5 Z"/></g>
<g><path style="opacity:0.82" fill="#fb8838" d="M 4869.5,1589.5 C 4919.01,1613.42 4968.68,1637.09 5018.5,1660.5C 5010.35,1662.87 5002.02,1665.04 4993.5,1667C 4925.22,1681.59 4856.22,1690.25 4786.5,1693C 4813.65,1658.02 4841.32,1623.52 4869.5,1589.5 Z"/></g>
<g><path style="opacity:1" fill="#f97543" d="M 1671.5,1599.5 C 1677.44,1603.11 1682.77,1607.44 1687.5,1612.5C 1686.17,2083.83 1686.17,2555.17 1687.5,3026.5C 1682.77,3031.56 1677.44,3035.89 1671.5,3039.5C 1670.17,2559.5 1670.17,2079.5 1671.5,1599.5 Z"/></g>
<g><path style="opacity:0.82" fill="#fc8b36" d="M 5289.5,1601.5 C 5289.5,1663.17 5289.5,1724.83 5289.5,1786.5C 5246.83,1766.83 5204.17,1747.17 5161.5,1727.5C 5207.1,1688.57 5249.77,1646.57 5289.5,1601.5 Z"/></g>
<g><path style="opacity:1" fill="#ef1c7a" d="M 513.5,1610.5 C 513.5,2083.17 513.5,2555.83 513.5,3028.5C 482.609,3003.28 453.609,2975.95 426.5,2946.5C 426.5,2528.5 426.5,2110.5 426.5,1692.5C 453.662,1663 482.662,1635.67 513.5,1610.5 Z"/></g>
<g><path style="opacity:1" fill="#f97940" d="M 1687.5,1612.5 C 1715.67,1635 1742,1659.66 1766.5,1686.5C 1765.17,2108.5 1765.17,2530.5 1766.5,2952.5C 1742.05,2979.28 1715.72,3003.95 1687.5,3026.5C 1686.17,2555.17 1686.17,2083.83 1687.5,1612.5 Z"/></g>
<g><path style="opacity:1" fill="#fda159" d="M 5309.5,1626.5 C 5329.29,1635.23 5348.96,1644.23 5368.5,1653.5C 5348.02,1705.27 5328.36,1757.27 5309.5,1809.5C 5309.5,1748.5 5309.5,1687.5 5309.5,1626.5 Z"/></g>
<g><path style="opacity:0.82" fill="#ffc466" d="M 4697.5,1617.5 C 4698.64,1619.43 4700.31,1620.93 4702.5,1622C 4723.55,1632.86 4744.55,1643.69 4765.5,1654.5C 4744.86,1680.81 4724.19,1707.15 4703.5,1733.5C 4762.03,1736.52 4820.37,1734.19 4878.5,1726.5C 4923.17,1747.83 4967.83,1769.17 5012.5,1790.5C 4956.49,1830.1 4897.82,1865.77 4836.5,1897.5C 4746.05,1855.11 4655.71,1812.44 4565.5,1769.5C 4608.39,1717.94 4652.39,1667.27 4697.5,1617.5 Z"/></g>
<g><path style="opacity:0.82" fill="#ffc962" d="M 5012.5,1790.5 C 4967.83,1769.17 4923.17,1747.83 4878.5,1726.5C 4984.68,1714.62 5087.35,1688.95 5186.5,1649.5C 5132.87,1701.42 5074.87,1748.42 5012.5,1790.5 Z"/></g>
<g><path style="opacity:1" fill="#f97c3f" d="M 1766.5,1686.5 C 1769.5,1688.83 1772.17,1691.5 1774.5,1694.5C 1773.17,2111.17 1773.17,2527.83 1774.5,2944.5C 1772.17,2947.5 1769.5,2950.17 1766.5,2952.5C 1765.17,2530.5 1765.17,2108.5 1766.5,1686.5 Z"/></g>
<g><path style="opacity:1" fill="#ef187c" d="M 426.5,1692.5 C 426.5,2110.5 426.5,2528.5 426.5,2946.5C 423.862,2943.53 421.195,2940.53 418.5,2937.5C 418.5,2525.5 418.5,2113.5 418.5,1701.5C 421.195,1698.47 423.862,1695.47 426.5,1692.5 Z"/></g>
<g><path style="opacity:1" fill="#fa803c" d="M 1774.5,1694.5 C 1806.55,1728.87 1835.55,1765.53 1861.5,1804.5C 1860.17,2147.83 1860.17,2491.17 1861.5,2834.5C 1835.52,2873.49 1806.52,2910.16 1774.5,2944.5C 1773.17,2527.83 1773.17,2111.17 1774.5,1694.5 Z"/></g>
<g><path style="opacity:1" fill="#ef157e" d="M 418.5,1701.5 C 418.5,2113.5 418.5,2525.5 418.5,2937.5C 389.769,2906.02 363.435,2872.69 339.5,2837.5C 339.5,2492.17 339.5,2146.83 339.5,1801.5C 363.435,1766.31 389.769,1732.98 418.5,1701.5 Z"/></g>
<g><path style="opacity:0.82" fill="#fb8737" d="M 5161.5,1727.5 C 5204.17,1747.17 5246.83,1766.83 5289.5,1786.5C 5289.5,1813.17 5289.5,1839.83 5289.5,1866.5C 5289.5,1867.5 5289.5,1868.5 5289.5,1869.5C 5287.99,1872.68 5286.66,1876.02 5285.5,1879.5C 5262.38,1869.1 5239.38,1858.44 5216.5,1847.5C 5217.46,1846.64 5217.46,1845.97 5216.5,1845.5C 5215.58,1846.13 5214.58,1846.46 5213.5,1846.5C 5171.41,1826.69 5129.41,1806.69 5087.5,1786.5C 5112.74,1767.59 5137.41,1747.93 5161.5,1727.5 Z"/></g>
<g><path style="opacity:0.82" fill="#ffc169" d="M 4565.5,1769.5 C 4655.71,1812.44 4746.05,1855.11 4836.5,1897.5C 4825.48,1903.67 4814.15,1909.34 4802.5,1914.5C 4719.29,1871.31 4636.29,1827.64 4553.5,1783.5C 4557.03,1778.45 4561.03,1773.79 4565.5,1769.5 Z"/></g>
<g><path style="opacity:0.82" fill="#ffbe6c" d="M 4553.5,1783.5 C 4636.29,1827.64 4719.29,1871.31 4802.5,1914.5C 4747.09,1943.04 4690.09,1968.04 4631.5,1989.5C 4570.81,1962.32 4510.48,1934.32 4450.5,1905.5C 4484.11,1864.22 4518.44,1823.56 4553.5,1783.5 Z"/></g>
<g><path style="opacity:0.82" fill="#fb8539" d="M 5087.5,1786.5 C 5129.41,1806.69 5171.41,1826.69 5213.5,1846.5C 5178.01,1861.74 5142.35,1876.74 5106.5,1891.5C 5073.48,1875.32 5040.14,1859.66 5006.5,1844.5C 5033.64,1825.42 5060.64,1806.09 5087.5,1786.5 Z"/></g>
<g><path style="opacity:1" fill="#ee1081" d="M 339.5,1801.5 C 339.5,2146.83 339.5,2492.17 339.5,2837.5C 315.475,2803.48 294.475,2767.48 276.5,2729.5C 276.5,2455.83 276.5,2182.17 276.5,1908.5C 294.73,1871.01 315.73,1835.35 339.5,1801.5 Z"/></g>
<g><path style="opacity:1" fill="#fa8439" d="M 1861.5,1804.5 C 1875.82,1825.12 1889.15,1846.46 1901.5,1868.5C 1900.17,2169.17 1900.17,2469.83 1901.5,2770.5C 1889.15,2792.54 1875.82,2813.88 1861.5,2834.5C 1860.17,2491.17 1860.17,2147.83 1861.5,1804.5 Z"/></g>
<g><path style="opacity:1" fill="#d3cfda" d="M 5309.5,1811.5 C 5309.5,1849.5 5309.5,1887.5 5309.5,1925.5C 5302.82,1929.19 5296.15,1932.86 5289.5,1936.5C 5289.5,1914.17 5289.5,1891.83 5289.5,1869.5C 5289.5,1868.5 5289.5,1867.5 5289.5,1866.5C 5295.89,1848.06 5302.55,1829.73 5309.5,1811.5 Z"/></g>
<g><path style="opacity:0.82" fill="#fa803c" d="M 5006.5,1844.5 C 5040.14,1859.66 5073.48,1875.32 5106.5,1891.5C 5022.97,1928.68 4936.64,1957.68 4847.5,1978.5C 4833.96,1971.56 4820.29,1964.89 4806.5,1958.5C 4875.44,1924.05 4942.1,1886.05 5006.5,1844.5 Z"/></g>
<g><path style="opacity:0.82" fill="#fb853a" d="M 5216.5,1847.5 C 5239.38,1858.44 5262.38,1869.1 5285.5,1879.5C 5283.9,1885.3 5281.9,1890.97 5279.5,1896.5C 5255.07,1910.93 5230.41,1924.93 5205.5,1938.5C 5205.53,1937.5 5205.03,1936.84 5204,1936.5C 5181.23,1926.19 5158.73,1915.53 5136.5,1904.5C 5162.61,1884.73 5189.27,1865.73 5216.5,1847.5 Z"/></g>
<g><path style="opacity:1" fill="#fb8737" d="M 1901.5,1868.5 C 1916.08,1893.66 1929.08,1919.66 1940.5,1946.5C 1939.17,2195.17 1939.17,2443.83 1940.5,2692.5C 1929.08,2719.34 1916.08,2745.34 1901.5,2770.5C 1900.17,2469.83 1900.17,2169.17 1901.5,1868.5 Z"/></g>
<g><path style="opacity:0.82" fill="#fa803d" d="M 5136.5,1904.5 C 5158.73,1915.53 5181.23,1926.19 5204,1936.5C 5205.03,1936.84 5205.53,1937.5 5205.5,1938.5C 5136.91,1976.96 5067.25,2013.63 4996.5,2048.5C 4981.83,2041.17 4967.17,2033.83 4952.5,2026.5C 4979.81,2010.18 5006.81,1993.35 5033.5,1976C 5068.01,1952.31 5102.34,1928.48 5136.5,1904.5 Z"/></g>
<g><path style="opacity:0.82" fill="#ffba6f" d="M 4450.5,1905.5 C 4510.48,1934.32 4570.81,1962.32 4631.5,1989.5C 4611.29,1997.8 4590.62,2005.13 4569.5,2011.5C 4564.3,2009.9 4559.3,2007.74 4554.5,2005C 4511.12,1982.31 4468.12,1959.15 4425.5,1935.5C 4433.37,1925.09 4441.7,1915.09 4450.5,1905.5 Z"/></g>
<g><path style="opacity:0.82" fill="#ffb872" d="M 4425.5,1935.5 C 4468.12,1959.15 4511.12,1982.31 4554.5,2005C 4559.3,2007.74 4564.3,2009.9 4569.5,2011.5C 4533.08,2024.42 4496.08,2035.75 4458.5,2045.5C 4460.83,2058.82 4463.16,2072.16 4465.5,2085.5C 4530.77,2078.46 4595.77,2069.46 4660.5,2058.5C 4660.08,2059.22 4659.42,2059.72 4658.5,2060C 4684.4,2073.78 4710.4,2087.28 4736.5,2100.5C 4691.95,2123.77 4646.62,2145.44 4600.5,2165.5C 4513.1,2124.47 4425.77,2083.47 4338.5,2042.5C 4367.15,2006.52 4396.15,1970.85 4425.5,1935.5 Z"/></g>
<g><path style="opacity:1" fill="#ed0a85" d="M 276.5,1908.5 C 276.5,2182.17 276.5,2455.83 276.5,2729.5C 228.914,2635.23 198.748,2535.57 186,2430.5C 166.272,2262.51 190.272,2101.18 258,1946.5C 263.941,1933.62 270.108,1920.95 276.5,1908.5 Z"/></g>
<g><path style="opacity:1" fill="#fb8b35" d="M 1940.5,1946.5 C 1997.93,2075.93 2024.1,2211.59 2019,2353.5C 2014.38,2471.63 1988.21,2584.63 1940.5,2692.5C 1939.17,2443.83 1939.17,2195.17 1940.5,1946.5 Z"/></g>
<g><path style="opacity:0.82" fill="#fa7d41" d="M 4806.5,1958.5 C 4820.29,1964.89 4833.96,1971.56 4847.5,1978.5C 4792.05,1992.56 4736.05,2004.39 4679.5,2014C 4722.59,1997.12 4764.92,1978.62 4806.5,1958.5 Z"/></g>
<g><path style="opacity:0.82" fill="#fa7a41" d="M 4952.5,2026.5 C 4967.17,2033.83 4981.83,2041.17 4996.5,2048.5C 4923.46,2085.41 4849.46,2120.41 4774.5,2153.5C 4766.43,2148.13 4757.76,2143.8 4748.5,2140.5C 4817.76,2104.54 4885.76,2066.54 4952.5,2026.5 Z"/></g>
<g><path style="opacity:0.82" fill="#ffb475" d="M 4338.5,2042.5 C 4425.77,2083.47 4513.1,2124.47 4600.5,2165.5C 4571.69,2179.23 4542.36,2191.9 4512.5,2203.5C 4441.83,2165.83 4371.17,2128.17 4300.5,2090.5C 4312.79,2074.21 4325.46,2058.21 4338.5,2042.5 Z"/></g>
<g><path style="opacity:0.82" fill="#ffbb6f" d="M 4736.5,2100.5 C 4710.4,2087.28 4684.4,2073.78 4658.5,2060C 4659.42,2059.72 4660.08,2059.22 4660.5,2058.5C 4744.69,2044.26 4828.03,2026.42 4910.5,2005C 4853.6,2038.62 4795.6,2070.46 4736.5,2100.5 Z"/></g>
<g><path style="opacity:0.82" fill="#120240" d="M 5059.5,2061.5 C 5060.04,2061.56 5060.38,2061.89 5060.5,2062.5C 5052.39,2080.38 5044.56,2098.38 5037,2116.5C 4946.65,2162.92 4853.15,2202.08 4756.5,2234C 4708.41,2245.42 4660.07,2255.42 4611.5,2264C 4764.4,2204.38 4913.73,2136.88 5059.5,2061.5 Z"/></g>
<g><path style="opacity:0.82" fill="#ffb178" d="M 4300.5,2090.5 C 4371.17,2128.17 4441.83,2165.83 4512.5,2203.5C 4462.32,2224.79 4411.32,2244.12 4359.5,2261.5C 4313.39,2238.28 4267.73,2214.28 4222.5,2189.5C 4247.77,2155.9 4273.77,2122.9 4300.5,2090.5 Z"/></g>
<g><path style="opacity:0.82" fill="#f97545" d="M 4748.5,2140.5 C 4757.76,2143.8 4766.43,2148.13 4774.5,2153.5C 4702.93,2184.79 4630.59,2214.12 4557.5,2241.5C 4557.63,2240.62 4557.3,2239.96 4556.5,2239.5C 4552.72,2238.02 4549.05,2236.35 4545.5,2234.5C 4613.94,2205.12 4681.6,2173.79 4748.5,2140.5 Z"/></g>
<g><path style="opacity:0.82" fill="#fa7842" d="M 5103.5,2306.5 C 5053.25,2282.64 5002.92,2258.97 4952.5,2235.5C 5005.44,2223.03 5058.44,2210.2 5111.5,2197C 5128.49,2192.67 5145.33,2187.84 5162,2182.5C 5162.5,2182.83 5163,2183.17 5163.5,2183.5C 5143.17,2224.5 5123.17,2265.5 5103.5,2306.5 Z"/></g>
<g><path style="opacity:0.82" fill="#ffac7b" d="M 4222.5,2189.5 C 4267.73,2214.28 4313.39,2238.28 4359.5,2261.5C 4313.74,2277.47 4267.4,2291.97 4220.5,2305C 4219.63,2306.04 4218.63,2306.88 4217.5,2307.5C 4195.88,2298.64 4174.88,2288.64 4154.5,2277.5C 4176.82,2247.86 4199.48,2218.52 4222.5,2189.5 Z"/></g>
<g><path style="opacity:0.82" fill="#f9724c" d="M 4545.5,2234.5 C 4549.05,2236.35 4552.72,2238.02 4556.5,2239.5C 4557.3,2239.96 4557.63,2240.62 4557.5,2241.5C 4487.08,2267.31 4415.75,2290.31 4343.5,2310.5C 4343.5,2310.17 4343.5,2309.83 4343.5,2309.5C 4411.67,2286.75 4479,2261.75 4545.5,2234.5 Z"/></g>
<g><path style="opacity:0.82" fill="#f97443" d="M 4952.5,2235.5 C 5002.92,2258.97 5053.25,2282.64 5103.5,2306.5C 5091.16,2332.54 5078.82,2358.54 5066.5,2384.5C 4982.74,2344.46 4898.74,2304.8 4814.5,2265.5C 4860.23,2254.89 4906.23,2244.89 4952.5,2235.5 Z"/></g>
<g><path style="opacity:0.82" fill="#f97245" d="M 4814.5,2265.5 C 4898.74,2304.8 4982.74,2344.46 5066.5,2384.5C 5055.28,2410.6 5043.28,2436.26 5030.5,2461.5C 4914.19,2407.01 4797.86,2352.51 4681.5,2298C 4677.99,2296.24 4674.32,2295.07 4670.5,2294.5C 4718.33,2284.46 4766.33,2274.79 4814.5,2265.5 Z"/></g>
<g><path style="opacity:0.82" fill="#ffa97e" d="M 4154.5,2277.5 C 4174.88,2288.64 4195.88,2298.64 4217.5,2307.5C 4202.47,2326.19 4187.47,2344.86 4172.5,2363.5C 4152.6,2353.6 4132.94,2343.27 4113.5,2332.5C 4126.79,2313.88 4140.46,2295.55 4154.5,2277.5 Z"/></g>
<g><path style="opacity:0.82" fill="#f86d48" d="M 4670.5,2294.5 C 4674.32,2295.07 4677.99,2296.24 4681.5,2298C 4797.86,2352.51 4914.19,2407.01 5030.5,2461.5C 5007.48,2513.88 4984.15,2566.22 4960.5,2618.5C 4768.65,2528.74 4576.98,2438.74 4385.5,2348.5C 4480.5,2330.61 4575.5,2312.61 4670.5,2294.5 Z"/></g>
<g><path style="opacity:0.82" fill="#fdc0b2" d="M 4343.5,2309.5 C 4343.5,2309.83 4343.5,2310.17 4343.5,2310.5C 4339.11,2312.6 4334.45,2313.76 4329.5,2314C 4334.17,2312.39 4338.84,2310.89 4343.5,2309.5 Z"/></g>
<g><path style="opacity:0.82" fill="#ffa581" d="M 4113.5,2332.5 C 4132.94,2343.27 4152.6,2353.6 4172.5,2363.5C 4144.14,2400.86 4115.8,2438.19 4087.5,2475.5C 4067.96,2465.56 4048.29,2455.89 4028.5,2446.5C 4056.09,2407.91 4084.43,2369.91 4113.5,2332.5 Z"/></g>
<g><path style="opacity:0.82" fill="#f8664c" d="M 4325.5,2359.5 C 4532.61,2455.89 4739.61,2552.56 4946.5,2649.5C 4924.01,2702.33 4901.34,2754.99 4878.5,2807.5C 4634.5,2693.17 4390.5,2578.83 4146.5,2464.5C 4177.4,2422.55 4209.4,2381.38 4242.5,2341C 4259.21,2335.93 4275.87,2330.76 4292.5,2325.5C 4296.34,2337.51 4299,2349.84 4300.5,2362.5C 4308.85,2361.59 4317.18,2360.59 4325.5,2359.5 Z"/></g>
<g><path style="opacity:0.82" fill="#f86a4a" d="M 4385.5,2348.5 C 4576.98,2438.74 4768.65,2528.74 4960.5,2618.5C 4956.07,2629.02 4951.41,2639.35 4946.5,2649.5C 4739.61,2552.56 4532.61,2455.89 4325.5,2359.5C 4345.26,2355.23 4365.26,2351.57 4385.5,2348.5 Z"/></g>
<g><path style="opacity:0.82" fill="#ffa183" d="M 4028.5,2446.5 C 4048.29,2455.89 4067.96,2465.56 4087.5,2475.5C 4080.73,2485.38 4073.73,2495.05 4066.5,2504.5C 4063.13,2501.3 4059.13,2498.8 4054.5,2497C 4038.81,2489.82 4023.15,2482.65 4007.5,2475.5C 4014.12,2465.55 4021.12,2455.88 4028.5,2446.5 Z"/></g>
<g><path style="opacity:0.82" fill="#f7614f" d="M 4146.5,2464.5 C 4390.5,2578.83 4634.5,2693.17 4878.5,2807.5C 4859.17,2855.17 4839.83,2902.83 4820.5,2950.5C 4565.4,2831.45 4310.4,2712.12 4055.5,2592.5C 4054.7,2592.04 4054.37,2591.38 4054.5,2590.5C 4084.2,2547.75 4114.87,2505.75 4146.5,2464.5 Z"/></g>
<g><path style="opacity:0.82" fill="#ff9e86" d="M 4007.5,2475.5 C 4023.15,2482.65 4038.81,2489.82 4054.5,2497C 4059.13,2498.8 4063.13,2501.3 4066.5,2504.5C 4042.58,2537.36 4018.91,2570.36 3995.5,2603.5C 3976.16,2592.83 3956.16,2583.16 3935.5,2574.5C 3958.78,2540.93 3982.78,2507.93 4007.5,2475.5 Z"/></g>
<g><path style="opacity:0.82" fill="#ff9a88" d="M 3935.5,2574.5 C 3956.16,2583.16 3976.16,2592.83 3995.5,2603.5C 3982.98,2622.55 3969.98,2641.22 3956.5,2659.5C 3936.29,2649.89 3915.95,2640.56 3895.5,2631.5C 3908.59,2612.32 3921.92,2593.32 3935.5,2574.5 Z"/></g>
<g><path style="opacity:0.82" fill="#f75e52" d="M 4054.5,2590.5 C 4054.37,2591.38 4054.7,2592.04 4055.5,2592.5C 4310.4,2712.12 4565.4,2831.45 4820.5,2950.5C 4816.07,2961.68 4811.41,2972.68 4806.5,2983.5C 4806.63,2982.62 4806.3,2981.96 4805.5,2981.5C 4548.14,2861.16 4290.81,2740.82 4033.5,2620.5C 4040.02,2610.11 4047.02,2600.11 4054.5,2590.5 Z"/></g>
<g><path style="opacity:0.82" fill="#f65a54" d="M 4033.5,2620.5 C 4290.81,2740.82 4548.14,2861.16 4805.5,2981.5C 4806.3,2981.96 4806.63,2982.62 4806.5,2983.5C 4785.97,3036.43 4765.64,3089.43 4745.5,3142.5C 4475.32,3016.55 4205.32,2890.22 3935.5,2763.5C 3967.42,2715.26 4000.08,2667.59 4033.5,2620.5 Z"/></g>
<g><path style="opacity:0.82" fill="#ff978b" d="M 3895.5,2631.5 C 3915.95,2640.56 3936.29,2649.89 3956.5,2659.5C 3938.66,2687.19 3920.33,2714.52 3901.5,2741.5C 3881.01,2731.42 3860.68,2721.09 3840.5,2710.5C 3858.45,2683.89 3876.78,2657.55 3895.5,2631.5 Z"/></g>
<g><path style="opacity:0.82" fill="#ff928e" d="M 3840.5,2710.5 C 3860.68,2721.09 3881.01,2731.42 3901.5,2741.5C 3878.49,2776.87 3855.49,2812.2 3832.5,2847.5C 3810.71,2837.77 3789.04,2827.77 3767.5,2817.5C 3791.09,2781.3 3815.43,2745.64 3840.5,2710.5 Z"/></g>
<g><path style="opacity:0.82" fill="#f65556" d="M 3935.5,2763.5 C 4205.32,2890.22 4475.32,3016.55 4745.5,3142.5C 4735.87,3169.74 4725.87,3196.74 4715.5,3223.5C 4439.75,3094.69 4164.08,2965.69 3888.5,2836.5C 3903.75,2811.92 3919.41,2787.58 3935.5,2763.5 Z"/></g>
<g><path style="opacity:0.82" fill="#ff8c91" d="M 3767.5,2817.5 C 3789.04,2827.77 3810.71,2837.77 3832.5,2847.5C 3808.16,2886.84 3783.83,2926.17 3759.5,2965.5C 3736.1,2954.97 3713.1,2943.63 3690.5,2931.5C 3715.68,2893.12 3741.35,2855.12 3767.5,2817.5 Z"/></g>
<g><path style="opacity:0.82" fill="#f65358" d="M 3888.5,2836.5 C 4164.08,2965.69 4439.75,3094.69 4715.5,3223.5C 4706.2,3251.06 4696.54,3278.39 4686.5,3305.5C 4635.99,3281.32 4585.33,3257.32 4534.5,3233.5C 4541.09,3225.35 4547.92,3217.35 4555,3209.5C 4555.67,3208.83 4555.67,3208.17 4555,3207.5C 4541.88,3213.64 4528.72,3219.64 4515.5,3225.5C 4291.35,3119.93 4067.02,3014.59 3842.5,2909.5C 3857.09,2884.65 3872.42,2860.32 3888.5,2836.5 Z"/></g>
<g><path style="opacity:0.82" fill="#f54e5b" d="M 3842.5,2909.5 C 4067.02,3014.59 4291.35,3119.93 4515.5,3225.5C 4436.11,3262.36 4354.44,3293.36 4270.5,3318.5C 4094.92,3236.54 3919.59,3154.2 3744.5,3071.5C 3775.66,3016.49 3808.33,2962.49 3842.5,2909.5 Z"/></g>
<g><path style="opacity:0.82" fill="#ff8894" d="M 3690.5,2931.5 C 3713.1,2943.63 3736.1,2954.97 3759.5,2965.5C 3751.25,2981.01 3742.25,2996.01 3732.5,3010.5C 3709.29,2998.42 3685.62,2987.08 3661.5,2976.5C 3670.92,2961.33 3680.58,2946.33 3690.5,2931.5 Z"/></g>
<g><path style="opacity:0.82" fill="#ff8596" d="M 3661.5,2976.5 C 3685.62,2987.08 3709.29,2998.42 3732.5,3010.5C 3721.33,3030.84 3709.67,3050.84 3697.5,3070.5C 3696.18,3068.31 3694.18,3066.81 3691.5,3066C 3668.76,3055.59 3646.09,3045.09 3623.5,3034.5C 3635.81,3014.87 3648.47,2995.54 3661.5,2976.5 Z"/></g>
<g><path style="opacity:0.82" fill="#ff8098" d="M 3623.5,3034.5 C 3646.09,3045.09 3668.76,3055.59 3691.5,3066C 3694.18,3066.81 3696.18,3068.31 3697.5,3070.5C 3675.42,3110.34 3653.08,3150 3630.5,3189.5C 3603.69,3176.6 3576.69,3163.93 3549.5,3151.5C 3573.41,3112.02 3598.07,3073.02 3623.5,3034.5 Z"/></g>
<g><path style="opacity:0.82" fill="#f54b5e" d="M 3744.5,3071.5 C 3919.59,3154.2 4094.92,3236.54 4270.5,3318.5C 4262.33,3321.41 4253.99,3324.08 4245.5,3326.5C 4076.85,3246.55 3907.85,3167.05 3738.5,3088C 3737.21,3087.51 3735.87,3087.34 3734.5,3087.5C 3737.85,3082.13 3741.18,3076.8 3744.5,3071.5 Z"/></g>
<g><path style="opacity:0.82" fill="#f4475f" d="M 3734.5,3087.5 C 3735.87,3087.34 3737.21,3087.51 3738.5,3088C 3907.85,3167.05 4076.85,3246.55 4245.5,3326.5C 4157.66,3352.33 4068.66,3373.66 3978.5,3390.5C 3872.71,3340.44 3766.71,3290.61 3660.5,3241C 3657.24,3239.53 3653.91,3238.37 3650.5,3237.5C 3677.99,3187.18 3705.99,3137.18 3734.5,3087.5 Z"/></g>
<g><path style="opacity:0.82" fill="#ff7b9b" d="M 3549.5,3151.5 C 3576.69,3163.93 3603.69,3176.6 3630.5,3189.5C 3617.34,3215.16 3603.67,3240.49 3589.5,3265.5C 3561.14,3251.32 3532.47,3237.65 3503.5,3224.5C 3518.1,3199.62 3533.43,3175.29 3549.5,3151.5 Z"/></g>
<g><path style="opacity:0.82" fill="#ff779d" d="M 3503.5,3224.5 C 3532.47,3237.65 3561.14,3251.32 3589.5,3265.5C 3582.67,3279.82 3575.34,3293.82 3567.5,3307.5C 3538.66,3291.91 3509.66,3276.58 3480.5,3261.5C 3487.93,3248.96 3495.6,3236.63 3503.5,3224.5 Z"/></g>
<g><path style="opacity:0.82" fill="#f54e5b" d="M 4534.5,3233.5 C 4585.33,3257.32 4635.99,3281.32 4686.5,3305.5C 4666.15,3365.22 4646.82,3425.22 4628.5,3485.5C 4551.42,3450.03 4474.42,3414.36 4397.5,3378.5C 4447.02,3333.65 4492.69,3285.31 4534.5,3233.5 Z"/></g>
<g><path style="opacity:0.82" fill="#f44362" d="M 3650.5,3237.5 C 3653.91,3238.37 3657.24,3239.53 3660.5,3241C 3766.71,3290.61 3872.71,3340.44 3978.5,3390.5C 3929.04,3400.02 3879.37,3408.35 3829.5,3415.5C 3756.83,3381.17 3684.17,3346.83 3611.5,3312.5C 3624.23,3287.37 3637.23,3262.37 3650.5,3237.5 Z"/></g>
<g><path style="opacity:0.82" fill="#ff739f" d="M 3480.5,3261.5 C 3509.66,3276.58 3538.66,3291.91 3567.5,3307.5C 3548.81,3344.87 3530.15,3382.21 3511.5,3419.5C 3511.63,3418.62 3511.3,3417.96 3510.5,3417.5C 3482.34,3402.92 3454.34,3388.09 3426.5,3373C 3423.03,3370.93 3419.36,3369.43 3415.5,3368.5C 3436.92,3332.67 3458.58,3297 3480.5,3261.5 Z"/></g>
<g><path style="opacity:0.82" fill="#f44064" d="M 3611.5,3312.5 C 3684.17,3346.83 3756.83,3381.17 3829.5,3415.5C 3738.28,3429.34 3646.62,3439.34 3554.5,3445.5C 3550.96,3445.81 3547.62,3445.48 3544.5,3444.5C 3565.81,3399.87 3588.15,3355.87 3611.5,3312.5 Z"/></g>
<g><path style="opacity:0.82" fill="#ff8797" d="M 4339.5,3375.5 C 4325.37,3367.1 4310.7,3359.77 4295.5,3353.5C 4332.31,3341.28 4368.98,3328.78 4405.5,3316C 4384.21,3336.8 4362.21,3356.64 4339.5,3375.5 Z"/></g>
<g><path style="opacity:0.82" fill="#ff8098" d="M 4295.5,3353.5 C 4310.7,3359.77 4325.37,3367.1 4339.5,3375.5C 4300.98,3410.03 4260.98,3442.69 4219.5,3473.5C 4219.63,3472.62 4219.3,3471.96 4218.5,3471.5C 4198.17,3460.67 4177.83,3449.83 4157.5,3439C 4136.71,3427.94 4115.71,3417.44 4094.5,3407.5C 4161.99,3391.6 4228.99,3373.6 4295.5,3353.5 Z"/></g>
<g><path style="opacity:0.82" fill="#fe6ea1" d="M 3415.5,3368.5 C 3419.36,3369.43 3423.03,3370.93 3426.5,3373C 3454.34,3388.09 3482.34,3402.92 3510.5,3417.5C 3511.3,3417.96 3511.63,3418.62 3511.5,3419.5C 3504.68,3435.15 3497.34,3450.48 3489.5,3465.5C 3455.46,3448.98 3421.79,3431.65 3388.5,3413.5C 3397.75,3398.67 3406.75,3383.67 3415.5,3368.5 Z"/></g>
<g><path style="opacity:0.82" fill="#f54b5e" d="M 4397.5,3378.5 C 4474.42,3414.36 4551.42,3450.03 4628.5,3485.5C 4626.47,3491.25 4624.47,3496.91 4622.5,3502.5C 4543.17,3464.67 4463.5,3427.67 4383.5,3391.5C 4388.14,3387.19 4392.81,3382.86 4397.5,3378.5 Z"/></g>
<g><path style="opacity:0.82" fill="#f4475f" d="M 4383.5,3391.5 C 4463.5,3427.67 4543.17,3464.67 4622.5,3502.5C 4606.16,3558.15 4590.5,3613.82 4575.5,3669.5C 4462.49,3616.99 4349.83,3563.99 4237.5,3510.5C 4287.88,3473.13 4336.55,3433.47 4383.5,3391.5 Z"/></g>
<g><path style="opacity:0.82" fill="#ff7b9b" d="M 4094.5,3407.5 C 4115.71,3417.44 4136.71,3427.94 4157.5,3439C 4177.83,3449.83 4198.17,3460.67 4218.5,3471.5C 4219.3,3471.96 4219.63,3472.62 4219.5,3473.5C 4195.41,3491.91 4170.75,3509.58 4145.5,3526.5C 4140.29,3522.89 4134.62,3519.72 4128.5,3517C 4071.38,3490.61 4014.38,3463.94 3957.5,3437C 3956.21,3436.51 3954.87,3436.34 3953.5,3436.5C 4000.53,3427.49 4047.53,3417.83 4094.5,3407.5 Z"/></g>
<g><path style="opacity:0.82" fill="#fe6ca3" d="M 3388.5,3413.5 C 3421.79,3431.65 3455.46,3448.98 3489.5,3465.5C 3485.97,3473.39 3482.31,3481.22 3478.5,3489C 3496.48,3488.53 3514.48,3488.03 3532.5,3487.5C 3535.19,3487.34 3537.85,3487.5 3540.5,3488C 3661.38,3544.94 3782.38,3601.61 3903.5,3658C 3908.22,3660.02 3912.56,3662.52 3916.5,3665.5C 3891.27,3679.28 3865.61,3692.28 3839.5,3704.5C 3689.5,3633.5 3539.17,3563 3388.5,3493C 3376.46,3487.31 3364.79,3481.15 3353.5,3474.5C 3364.9,3454.03 3376.57,3433.7 3388.5,3413.5 Z"/></g>
<g><path style="opacity:0.82" fill="#ff779d" d="M 3953.5,3436.5 C 3954.87,3436.34 3956.21,3436.51 3957.5,3437C 4014.38,3463.94 4071.38,3490.61 4128.5,3517C 4134.62,3519.72 4140.29,3522.89 4145.5,3526.5C 4123.88,3541.65 4101.88,3556.32 4079.5,3570.5C 4035.5,3549.17 3991.17,3528.34 3946.5,3508C 3912.81,3490.15 3879.14,3472.32 3845.5,3454.5C 3881.39,3448.52 3917.39,3442.52 3953.5,3436.5 Z"/></g>
<g><path style="opacity:0.82" fill="#faa1b4" d="M 3544.5,3444.5 C 3547.62,3445.48 3550.96,3445.81 3554.5,3445.5C 3550.98,3446.81 3547.31,3446.81 3543.5,3445.5C 3543.62,3444.89 3543.96,3444.56 3544.5,3444.5 Z"/></g>
<g><path style="opacity:0.82" fill="#fe72a0" d="M 3845.5,3454.5 C 3879.14,3472.32 3912.81,3490.15 3946.5,3508C 3991.17,3528.34 4035.5,3549.17 4079.5,3570.5C 4038.96,3596.94 3997.29,3621.61 3954.5,3644.5C 3911.06,3623.73 3867.4,3603.23 3823.5,3583C 3759.01,3549.25 3694.68,3515.25 3630.5,3481C 3629.21,3480.51 3627.87,3480.34 3626.5,3480.5C 3699.54,3473.28 3772.54,3464.61 3845.5,3454.5 Z"/></g>
<g><path style="opacity:0.82" fill="#fe67a5" d="M 3353.5,3474.5 C 3364.79,3481.15 3376.46,3487.31 3388.5,3493C 3539.17,3563 3689.5,3633.5 3839.5,3704.5C 3789.39,3729.05 3738.39,3751.72 3686.5,3772.5C 3647.88,3751.19 3608.88,3730.35 3569.5,3710C 3476.93,3666.55 3384.27,3623.38 3291.5,3580.5C 3311.68,3544.8 3332.34,3509.47 3353.5,3474.5 Z"/></g>
<g><path style="opacity:0.82" fill="#fe6ea1" d="M 3626.5,3480.5 C 3627.87,3480.34 3629.21,3480.51 3630.5,3481C 3694.68,3515.25 3759.01,3549.25 3823.5,3583C 3867.4,3603.23 3911.06,3623.73 3954.5,3644.5C 3942.22,3651.98 3929.56,3658.98 3916.5,3665.5C 3912.56,3662.52 3908.22,3660.02 3903.5,3658C 3782.38,3601.61 3661.38,3544.94 3540.5,3488C 3537.85,3487.5 3535.19,3487.34 3532.5,3487.5C 3563.66,3484.82 3594.99,3482.49 3626.5,3480.5 Z"/></g>
<g><path style="opacity:0.82" fill="#f44362" d="M 4237.5,3510.5 C 4349.83,3563.99 4462.49,3616.99 4575.5,3669.5C 4569.3,3697.98 4562.63,3726.31 4555.5,3754.5C 4422.38,3692.77 4289.38,3630.77 4156.5,3568.5C 4183.64,3549.42 4210.64,3530.09 4237.5,3510.5 Z"/></g>
<g><path style="opacity:0.82" fill="#f44064" d="M 4156.5,3568.5 C 4289.38,3630.77 4422.38,3692.77 4555.5,3754.5C 4550.56,3777.78 4545.73,3801.11 4541,3824.5C 4536.65,3829.35 4531.81,3833.69 4526.5,3837.5C 4522.56,3834.52 4518.22,3832.02 4513.5,3830C 4366.27,3760.88 4218.93,3692.05 4071.5,3623.5C 4100,3605.42 4128.33,3587.09 4156.5,3568.5 Z"/></g>
<g><path style="opacity:0.82" fill="#fe62a7" d="M 3291.5,3580.5 C 3384.27,3623.38 3476.93,3666.55 3569.5,3710C 3608.88,3730.35 3647.88,3751.19 3686.5,3772.5C 3666.91,3780.36 3647.25,3788.03 3627.5,3795.5C 3622.96,3792.22 3617.96,3789.39 3612.5,3787C 3497.27,3732.88 3381.93,3679.05 3266.5,3625.5C 3274.4,3610.26 3282.74,3595.26 3291.5,3580.5 Z"/></g>
<g><path style="opacity:0.82" fill="#f43d65" d="M 4071.5,3623.5 C 4218.93,3692.05 4366.27,3760.88 4513.5,3830C 4518.22,3832.02 4522.56,3834.52 4526.5,3837.5C 4512.05,3849.63 4497.05,3860.96 4481.5,3871.5C 4326.92,3800.21 4172.92,3727.87 4019.5,3654.5C 4036.83,3644.17 4054.16,3633.84 4071.5,3623.5 Z"/></g>
<g><path style="opacity:0.82" fill="#fe5fa9" d="M 3266.5,3625.5 C 3381.93,3679.05 3497.27,3732.88 3612.5,3787C 3617.96,3789.39 3622.96,3792.22 3627.5,3795.5C 3596.9,3806.37 3566.24,3817.03 3535.5,3827.5C 3503.92,3812.38 3472.26,3797.21 3440.5,3782C 3377.17,3748.33 3313.83,3714.67 3250.5,3681C 3246.37,3678.6 3242.03,3676.76 3237.5,3675.5C 3246.68,3658.47 3256.34,3641.8 3266.5,3625.5 Z"/></g>
<g><path style="opacity:0.82" fill="#f33b67" d="M 4019.5,3654.5 C 4172.92,3727.87 4326.92,3800.21 4481.5,3871.5C 4444.23,3900.09 4405.57,3926.75 4365.5,3951.5C 4362.23,3948.86 4358.56,3946.69 4354.5,3945C 4201.17,3873.33 4047.83,3801.67 3894.5,3730C 3891.82,3729.19 3889.82,3727.69 3888.5,3725.5C 3932.97,3703.1 3976.63,3679.44 4019.5,3654.5 Z"/></g>
<g><path style="opacity:0.82" fill="#fe5aab" d="M 3237.5,3675.5 C 3242.03,3676.76 3246.37,3678.6 3250.5,3681C 3313.83,3714.67 3377.17,3748.33 3440.5,3782C 3472.26,3797.21 3503.92,3812.38 3535.5,3827.5C 3477.41,3846.35 3418.75,3863.02 3359.5,3877.5C 3298.79,3846.98 3238.46,3815.65 3178.5,3783.5C 3197.65,3747.21 3217.31,3711.21 3237.5,3675.5 Z"/></g>
<g><path style="opacity:0.82" fill="#f33769" d="M 3888.5,3725.5 C 3889.82,3727.69 3891.82,3729.19 3894.5,3730C 4047.83,3801.67 4201.17,3873.33 4354.5,3945C 4358.56,3946.69 4362.23,3948.86 4365.5,3951.5C 4336.8,3969.85 4307.46,3987.19 4277.5,4003.5C 4186.25,3961.2 4095.25,3918.54 4004.5,3875.5C 4027.1,3866.52 4049.77,3857.52 4072.5,3848.5C 4068.11,3836.06 4063.44,3823.72 4058.5,3811.5C 4016.62,3823.89 3974.29,3834.55 3931.5,3843.5C 3928.13,3840.3 3924.13,3837.8 3919.5,3836C 3877.41,3816.53 3835.41,3796.86 3793.5,3777C 3790.9,3775.86 3788.24,3775.03 3785.5,3774.5C 3819.86,3758.49 3854.19,3742.16 3888.5,3725.5 Z"/></g>
<g><path style="opacity:0.82" fill="#f2346c" d="M 3785.5,3774.5 C 3788.24,3775.03 3790.9,3775.86 3793.5,3777C 3835.41,3796.86 3877.41,3816.53 3919.5,3836C 3924.13,3837.8 3928.13,3840.3 3931.5,3843.5C 3861.01,3856.41 3790.01,3865.75 3718.5,3871.5C 3715.81,3871.66 3713.15,3871.5 3710.5,3871C 3685.41,3859.12 3660.41,3847.29 3635.5,3835.5C 3685.89,3816.31 3735.89,3795.98 3785.5,3774.5 Z"/></g>
<g><path style="opacity:0.82" fill="#fe55ae" d="M 3178.5,3783.5 C 3238.46,3815.65 3298.79,3846.98 3359.5,3877.5C 3314.98,3888.8 3270.32,3899.46 3225.5,3909.5C 3195.14,3894.66 3164.48,3880.32 3133.5,3866.5C 3147.74,3838.35 3162.74,3810.68 3178.5,3783.5 Z"/></g>
<g><path style="opacity:0.82" fill="#f2336f" d="M 3635.5,3835.5 C 3660.41,3847.29 3685.41,3859.12 3710.5,3871C 3713.15,3871.5 3715.81,3871.66 3718.5,3871.5C 3644.46,3878.13 3570.13,3881.63 3495.5,3882C 3542.58,3867.58 3589.25,3852.08 3635.5,3835.5 Z"/></g>
<g><path style="opacity:0.82" fill="#fe4eb0" d="M 3133.5,3866.5 C 3164.48,3880.32 3195.14,3894.66 3225.5,3909.5C 3217.19,3911.77 3208.86,3913.94 3200.5,3916C 3214.5,3916.67 3228.5,3917.17 3242.5,3917.5C 3297.74,3946.79 3353.07,3976.12 3408.5,4005.5C 3409.3,4005.96 3409.63,4006.62 3409.5,4007.5C 3340.4,4022.85 3271.06,4037.19 3201.5,4050.5C 3157.84,4029 3113.84,4008 3069.5,3987.5C 3090.07,3946.68 3111.41,3906.35 3133.5,3866.5 Z"/></g>
<g><path style="opacity:0.82" fill="#f2346c" d="M 4004.5,3875.5 C 4095.25,3918.54 4186.25,3961.2 4277.5,4003.5C 4233.89,4028.98 4189.22,4052.98 4143.5,4075.5C 4143.63,4074.62 4143.3,4073.96 4142.5,4073.5C 4043.5,4027 3944.5,3980.5 3845.5,3934C 3843.26,3933.02 3840.93,3932.52 3838.5,3932.5C 3894.08,3914.31 3949.41,3895.31 4004.5,3875.5 Z"/></g>
<g><path style="opacity:0.82" fill="#fe5cac" d="M 3557.5,3971.5 C 3554.81,3968.64 3551.48,3966.47 3547.5,3965C 3518.17,3951.33 3488.83,3937.67 3459.5,3924C 3439,3923.83 3418.66,3923.33 3398.5,3922.5C 3529.59,3924.58 3660.26,3918.74 3790.5,3905C 3713.37,3929.2 3635.71,3951.36 3557.5,3971.5 Z"/></g>
<g><path style="opacity:0.82" fill="#fe54ae" d="M 3242.5,3917.5 C 3294.46,3920.29 3346.46,3921.95 3398.5,3922.5C 3418.66,3923.33 3439,3923.83 3459.5,3924C 3488.83,3937.67 3518.17,3951.33 3547.5,3965C 3551.48,3966.47 3554.81,3968.64 3557.5,3971.5C 3508.31,3984.13 3458.97,3996.13 3409.5,4007.5C 3409.63,4006.62 3409.3,4005.96 3408.5,4005.5C 3353.07,3976.12 3297.74,3946.79 3242.5,3917.5 Z"/></g>
<g><path style="opacity:0.82" fill="#f22f6e" d="M 3838.5,3932.5 C 3840.93,3932.52 3843.26,3933.02 3845.5,3934C 3944.5,3980.5 4043.5,4027 4142.5,4073.5C 4143.3,4073.96 4143.63,4074.62 4143.5,4075.5C 4082.73,4104.76 4021.07,4132.09 3958.5,4157.5C 3844.72,4104.45 3731.06,4051.11 3617.5,3997.5C 3691.38,3976.94 3765.05,3955.28 3838.5,3932.5 Z"/></g>
<g><path style="opacity:0.82" fill="#11013f" d="M 4416.5,3965.5 C 4417.1,3965.74 4417.43,3966.24 4417.5,3967C 4413.82,3980.72 4410.15,3994.39 4406.5,4008C 4277.29,4120.7 4133.96,4212.37 3976.5,4283C 3899.36,4317.73 3820.36,4347.73 3739.5,4373C 3635.56,4371.53 3532.23,4362.86 3429.5,4347C 3747.85,4292.45 4046.52,4184.45 4325.5,4023C 4356.57,4004.81 4386.91,3985.64 4416.5,3965.5 Z"/></g>
<g><path style="opacity:0.82" fill="#fe47b3" d="M 3069.5,3987.5 C 3113.84,4008 3157.84,4029 3201.5,4050.5C 3184.5,4083.84 3167.5,4117.17 3150.5,4150.5C 3107.69,4127.26 3064.69,4104.26 3021.5,4081.5C 3036.99,4049.85 3052.99,4018.51 3069.5,3987.5 Z"/></g>
<g><path style="opacity:0.82" fill="#f22c71" d="M 3617.5,3997.5 C 3731.06,4051.11 3844.72,4104.45 3958.5,4157.5C 3943.31,4163.56 3927.98,4169.23 3912.5,4174.5C 3796.81,4119.66 3680.81,4065.32 3564.5,4011.5C 3581.95,4006.39 3599.61,4001.72 3617.5,3997.5 Z"/></g>
<g><path style="opacity:0.82" fill="#f12873" d="M 3564.5,4011.5 C 3680.81,4065.32 3796.81,4119.66 3912.5,4174.5C 3834.38,4204.76 3754.71,4230.43 3673.5,4251.5C 3546.98,4192.41 3420.65,4133.07 3294.5,4073.5C 3384.81,4054.55 3474.81,4033.89 3564.5,4011.5 Z"/></g>
<g><path style="opacity:0.82" fill="#f12475" d="M 3294.5,4073.5 C 3420.65,4133.07 3546.98,4192.41 3673.5,4251.5C 3629.6,4263.89 3585.27,4274.89 3540.5,4284.5C 3429.75,4232.13 3318.75,4180.13 3207.5,4128.5C 3213.97,4113.56 3221.47,4099.23 3230,4085.5C 3251.39,4080.94 3272.89,4076.94 3294.5,4073.5 Z"/></g>
<g><path style="opacity:0.82" fill="#fe41b5" d="M 3021.5,4081.5 C 3064.69,4104.26 3107.69,4127.26 3150.5,4150.5C 3137.07,4178.36 3123.4,4206.03 3109.5,4233.5C 3064.83,4212.83 3020.17,4192.17 2975.5,4171.5C 2990.34,4141.15 3005.67,4111.15 3021.5,4081.5 Z"/></g>
<g><path style="opacity:0.82" fill="#f02177" d="M 3207.5,4128.5 C 3318.75,4180.13 3429.75,4232.13 3540.5,4284.5C 3492.52,4295.24 3444.19,4304.24 3395.5,4311.5C 3320.25,4275.38 3244.59,4240.04 3168.5,4205.5C 3180.74,4179.36 3193.74,4153.69 3207.5,4128.5 Z"/></g>
<g><path style="opacity:0.82" fill="#fe3bb8" d="M 2975.5,4171.5 C 3020.17,4192.17 3064.83,4212.83 3109.5,4233.5C 3092.4,4270.02 3075.07,4306.36 3057.5,4342.5C 3057.63,4341.62 3057.3,4340.96 3056.5,4340.5C 3013.11,4317.81 2969.78,4295.14 2926.5,4272.5C 2942.56,4238.71 2958.9,4205.04 2975.5,4171.5 Z"/></g>
<g><path style="opacity:0.82" fill="#f01c7a" d="M 3168.5,4205.5 C 3244.59,4240.04 3320.25,4275.38 3395.5,4311.5C 3337.16,4320.91 3278.49,4329.07 3219.5,4336C 3217.39,4336.36 3215.39,4337.03 3213.5,4338C 3305.85,4366.87 3400.18,4386.54 3496.5,4397C 3531.08,4401.16 3565.75,4404.32 3600.5,4406.5C 3701.85,4454.26 3803.35,4501.92 3905,4549.5C 3906.03,4549.84 3906.53,4550.5 3906.5,4551.5C 3819.56,4581.93 3731.89,4609.93 3643.5,4635.5C 3458,4548.89 3272.66,4461.89 3087.5,4374.5C 3113.56,4317.62 3140.56,4261.29 3168.5,4205.5 Z"/></g>
<g><path style="opacity:0.82" fill="#fe35ba" d="M 2926.5,4272.5 C 2969.78,4295.14 3013.11,4317.81 3056.5,4340.5C 3057.3,4340.96 3057.63,4341.62 3057.5,4342.5C 3045.15,4369.24 3032.82,4395.91 3020.5,4422.5C 3003.04,4412.26 2985.04,4402.76 2966.5,4394C 2939.69,4381.76 2913.02,4369.26 2886.5,4356.5C 2899.32,4328.19 2912.66,4300.19 2926.5,4272.5 Z"/></g>
<g><path style="opacity:0.82" fill="#fe2fbc" d="M 2886.5,4356.5 C 2913.02,4369.26 2939.69,4381.76 2966.5,4394C 2985.04,4402.76 3003.04,4412.26 3020.5,4422.5C 3006.07,4455.69 2991.4,4488.69 2976.5,4521.5C 2976.72,4520.32 2976.39,4519.32 2975.5,4518.5C 2931.47,4495.15 2887.47,4471.82 2843.5,4448.5C 2857.32,4417.52 2871.66,4386.86 2886.5,4356.5 Z"/></g>
<g><path style="opacity:0.82" fill="#f0197d" d="M 3087.5,4374.5 C 3272.66,4461.89 3458,4548.89 3643.5,4635.5C 3634.56,4637.99 3625.56,4640.32 3616.5,4642.5C 3442.5,4560.17 3268.17,4478.34 3093.5,4397C 3088.78,4394.98 3084.44,4392.48 3080.5,4389.5C 3082.26,4384.2 3084.6,4379.2 3087.5,4374.5 Z"/></g>
<g><path style="opacity:0.82" fill="#f12974" d="M 4126.5,4465.5 C 4122.46,4461.96 4117.79,4459.13 4112.5,4457C 4081.17,4442.33 4049.83,4427.67 4018.5,4413C 4015.38,4411.27 4012.05,4410.44 4008.5,4410.5C 4058.04,4407.04 4107.71,4403.21 4157.5,4399C 4206.92,4394.1 4256.26,4388.77 4305.5,4383C 4246.62,4412.11 4186.95,4439.61 4126.5,4465.5 Z"/></g>
<g><path style="opacity:0.82" fill="#ef167e" d="M 3080.5,4389.5 C 3084.44,4392.48 3088.78,4394.98 3093.5,4397C 3268.17,4478.34 3442.5,4560.17 3616.5,4642.5C 3529.37,4667.28 3441.37,4688.95 3352.5,4707.5C 3238.29,4653.9 3123.96,4600.56 3009.5,4547.5C 3032.04,4494.18 3055.7,4441.52 3080.5,4389.5 Z"/></g>
<g><path style="opacity:0.82" fill="#f02177" d="M 3600.5,4406.5 C 3667.71,4412.07 3735.04,4414.73 3802.5,4414.5C 3808.99,4415.33 3815.65,4415.83 3822.5,4416C 3888.19,4446.85 3953.86,4477.68 4019.5,4508.5C 3982.23,4523.63 3944.56,4537.96 3906.5,4551.5C 3906.53,4550.5 3906.03,4549.84 3905,4549.5C 3803.35,4501.92 3701.85,4454.26 3600.5,4406.5 Z"/></g>
<g><path style="opacity:0.82" fill="#f12576" d="M 4008.5,4410.5 C 4012.05,4410.44 4015.38,4411.27 4018.5,4413C 4049.83,4427.67 4081.17,4442.33 4112.5,4457C 4117.79,4459.13 4122.46,4461.96 4126.5,4465.5C 4091.17,4480.67 4055.5,4495 4019.5,4508.5C 3953.86,4477.68 3888.19,4446.85 3822.5,4416C 3815.65,4415.83 3808.99,4415.33 3802.5,4414.5C 3871.2,4414.87 3939.87,4413.54 4008.5,4410.5 Z"/></g>
<g><path style="opacity:0.82" fill="#fe28be" d="M 2843.5,4448.5 C 2887.47,4471.82 2931.47,4495.15 2975.5,4518.5C 2976.39,4519.32 2976.72,4520.32 2976.5,4521.5C 2963.01,4553.99 2949.34,4586.32 2935.5,4618.5C 2890.52,4593.67 2845.19,4569.34 2799.5,4545.5C 2813.89,4513.05 2828.56,4480.71 2843.5,4448.5 Z"/></g>
<g><path style="opacity:0.82" fill="#fe23c0" d="M 2799.5,4545.5 C 2845.19,4569.34 2890.52,4593.67 2935.5,4618.5C 2924.87,4646.07 2913.87,4673.4 2902.5,4700.5C 2856.3,4675.9 2809.96,4651.57 2763.5,4627.5C 2775.5,4600.17 2787.5,4572.83 2799.5,4545.5 Z"/></g>
<g><path style="opacity:0.82" fill="#ef1182" d="M 3009.5,4547.5 C 3123.96,4600.56 3238.29,4653.9 3352.5,4707.5C 3272.21,4725.87 3190.87,4738.54 3108.5,4745.5C 3058.6,4721.85 3008.6,4698.19 2958.5,4674.5C 2957.7,4674.04 2957.37,4673.38 2957.5,4672.5C 2973.68,4630.28 2991.01,4588.62 3009.5,4547.5 Z"/></g>
<g><path style="opacity:0.82" fill="#fe46b7" d="M 3870.5,4629.5 C 3862.07,4624.11 3853.07,4619.45 3843.5,4615.5C 3925.54,4587.54 4006.88,4557.71 4087.5,4526C 4016.39,4563.23 3944.05,4597.73 3870.5,4629.5 Z"/></g>
<g><path style="opacity:0.82" fill="#fe3eb9" d="M 3843.5,4615.5 C 3853.07,4619.45 3862.07,4624.11 3870.5,4629.5C 3834.41,4645.08 3798.08,4660.08 3761.5,4674.5C 3749.92,4667.46 3737.92,4660.96 3725.5,4655C 3724.21,4654.51 3722.87,4654.34 3721.5,4654.5C 3762.07,4641.53 3802.74,4628.53 3843.5,4615.5 Z"/></g>
<g><path style="opacity:0.82" fill="#fe1cc2" d="M 2763.5,4627.5 C 2809.96,4651.57 2856.3,4675.9 2902.5,4700.5C 2895.8,4719.58 2888.8,4738.58 2881.5,4757.5C 2886.11,4761.48 2891.11,4764.98 2896.5,4768C 2919.51,4777.8 2943.51,4783.8 2968.5,4786C 3002.44,4789.33 3036.44,4790.16 3070.5,4788.5C 3074.18,4788.33 3077.85,4788.5 3081.5,4789C 3123.71,4808.61 3165.71,4828.44 3207.5,4848.5C 3152.42,4861.65 3097.08,4873.65 3041.5,4884.5C 2986.83,4858.17 2931.83,4832.34 2876.5,4807C 2825.27,4779.6 2773.94,4752.44 2722.5,4725.5C 2736.17,4692.83 2749.83,4660.17 2763.5,4627.5 Z"/></g>
<g><path style="opacity:0.82" fill="#fe37ba" d="M 3721.5,4654.5 C 3722.87,4654.34 3724.21,4654.51 3725.5,4655C 3737.92,4660.96 3749.92,4667.46 3761.5,4674.5C 3717.73,4691.76 3673.73,4708.42 3629.5,4724.5C 3610.65,4714.91 3591.65,4705.58 3572.5,4696.5C 3622.12,4682.68 3671.79,4668.68 3721.5,4654.5 Z"/></g>
<g><path style="opacity:0.82" fill="#ee1284" d="M 2957.5,4672.5 C 2957.37,4673.38 2957.7,4674.04 2958.5,4674.5C 3008.6,4698.19 3058.6,4721.85 3108.5,4745.5C 3062.19,4750.06 3015.86,4750.23 2969.5,4746C 2956.98,4744.64 2944.65,4742.3 2932.5,4739C 2931.72,4737.23 2931.89,4735.4 2933,4733.5C 2940.7,4712.87 2948.87,4692.53 2957.5,4672.5 Z"/></g>
<g><path style="opacity:0.809" fill="#fefefe" d="M 4074.5,4696.5 C 4075.04,4696.56 4075.38,4696.89 4075.5,4697.5C 4062.17,4722.16 4048.34,4746.49 4034,4770.5C 4027.14,4779.54 4019.81,4788.2 4012,4796.5C 3976.63,4830.22 3938.13,4859.72 3896.5,4885C 3810.47,4936.35 3720.47,4979.68 3626.5,5015C 3527.65,5052.39 3427.32,5085.39 3325.5,5114C 3250.05,5134.48 3174.39,5154.15 3098.5,5173C 3182.05,5178.61 3265.38,5190.94 3348.5,5210C 3402.22,5222.85 3455.89,5235.85 3509.5,5249C 3444.16,5251.22 3378.83,5253.55 3313.5,5256C 3167.49,5263.33 3022.83,5281.33 2879.5,5310C 2810.32,5323.95 2742.99,5343.95 2677.5,5370C 2632.54,5389.03 2591.21,5413.7 2553.5,5444C 2553.12,5394.62 2570.29,5351.12 2605,5313.5C 2661.89,5230.36 2733.73,5163.52 2820.5,5113C 2882.17,5077.51 2947.5,5050.84 3016.5,5033C 3052.35,5023.7 3088.35,5015.04 3124.5,5007C 3253.21,4979.99 3381.54,4951.33 3509.5,4921C 3619.57,4894.64 3727.57,4861.64 3833.5,4822C 3918.84,4789 3999.17,4747.17 4074.5,4696.5 Z"/></g>
<g><path style="opacity:0.82" fill="#fe31bc" d="M 3572.5,4696.5 C 3591.65,4705.58 3610.65,4714.91 3629.5,4724.5C 3582.44,4740.96 3535.11,4756.63 3487.5,4771.5C 3463.71,4759.77 3439.71,4748.27 3415.5,4737C 3413.87,4736.51 3412.2,4736.34 3410.5,4736.5C 3464.44,4723.51 3518.44,4710.18 3572.5,4696.5 Z"/></g>
<g><path style="opacity:0.82" fill="#fe16c4" d="M 2722.5,4725.5 C 2773.94,4752.44 2825.27,4779.6 2876.5,4807C 2931.83,4832.34 2986.83,4858.17 3041.5,4884.5C 2983.74,4893.77 2927.07,4907.44 2871.5,4925.5C 2808.94,4891.39 2745.94,4858.05 2682.5,4825.5C 2695.28,4791.94 2708.61,4758.61 2722.5,4725.5 Z"/></g>
<g><path style="opacity:0.82" fill="#fe29bf" d="M 3410.5,4736.5 C 3412.2,4736.34 3413.87,4736.51 3415.5,4737C 3439.71,4748.27 3463.71,4759.77 3487.5,4771.5C 3431.3,4789.38 3374.63,4805.72 3317.5,4820.5C 3288.39,4804.44 3259.05,4788.61 3229.5,4773C 3228.21,4772.51 3226.87,4772.34 3225.5,4772.5C 3287.34,4762.07 3349.01,4750.07 3410.5,4736.5 Z"/></g>
<g><path style="opacity:0.82" fill="#fe24c1" d="M 3225.5,4772.5 C 3226.87,4772.34 3228.21,4772.51 3229.5,4773C 3259.05,4788.61 3288.39,4804.44 3317.5,4820.5C 3281.01,4830.45 3244.35,4839.79 3207.5,4848.5C 3165.71,4828.44 3123.71,4808.61 3081.5,4789C 3077.85,4788.5 3074.18,4788.33 3070.5,4788.5C 3122.27,4785.56 3173.94,4780.23 3225.5,4772.5 Z"/></g>
<g><path style="opacity:0.82" fill="#fe11c6" d="M 2682.5,4825.5 C 2745.94,4858.05 2808.94,4891.39 2871.5,4925.5C 2843.94,4934.45 2816.94,4944.78 2790.5,4956.5C 2746.5,4935.5 2702.5,4914.5 2658.5,4893.5C 2666.3,4870.77 2674.3,4848.1 2682.5,4825.5 Z"/></g>
<g><path style="opacity:0.82" fill="#ef1983" d="M 3606.5,4978.5 C 3588.14,4969.32 3569.48,4960.66 3550.5,4952.5C 3639.92,4929.64 3728.25,4902.81 3815.5,4872C 3836.44,4864.52 3857.11,4856.35 3877.5,4847.5C 3878.7,4847.85 3878.7,4848.35 3877.5,4849C 3791.36,4900.73 3701.03,4943.9 3606.5,4978.5 Z"/></g>
<g><path style="opacity:0.82" fill="#fe0dc8" d="M 2658.5,4893.5 C 2702.5,4914.5 2746.5,4935.5 2790.5,4956.5C 2715.78,4988.83 2648.45,5032.16 2588.5,5086.5C 2588.17,5086.17 2587.83,5085.83 2587.5,5085.5C 2610.8,5021.25 2634.47,4957.25 2658.5,4893.5 Z"/></g>
<g><path style="opacity:0.82" fill="#ee0f86" d="M 3550.5,4952.5 C 3569.48,4960.66 3588.14,4969.32 3606.5,4978.5C 3513.2,5014.6 3418.2,5045.93 3321.5,5072.5C 3290.38,5057.44 3259.05,5042.61 3227.5,5028C 3225.53,5027.5 3223.53,5027.34 3221.5,5027.5C 3331.36,5003.95 3441.03,4978.95 3550.5,4952.5 Z"/></g>
<g><path style="opacity:0.82" fill="#ed0a89" d="M 3221.5,5027.5 C 3223.53,5027.34 3225.53,5027.5 3227.5,5028C 3259.05,5042.61 3290.38,5057.44 3321.5,5072.5C 3279.57,5084.9 3237.24,5096.23 3194.5,5106.5C 3158.5,5090.17 3122.5,5073.83 3086.5,5057.5C 3131.16,5046.5 3176.16,5036.5 3221.5,5027.5 Z"/></g>
<g><path style="opacity:0.82" fill="#ed068c" d="M 3086.5,5057.5 C 3122.5,5073.83 3158.5,5090.17 3194.5,5106.5C 3128.86,5122.41 3063.52,5139.91 2998.5,5159C 2920.88,5184.21 2843.55,5210.21 2766.5,5237C 2828.84,5230.7 2891.17,5224.04 2953.5,5217C 3034.78,5209.94 3115.78,5212.27 3196.5,5224C 3062.79,5234.54 2930.79,5255.54 2800.5,5287C 2741.93,5301.74 2685.27,5321.41 2630.5,5346C 2722.18,5213.26 2845.85,5124.26 3001.5,5079C 3029.65,5071.05 3057.98,5063.88 3086.5,5057.5 Z"/></g>
<g><path style="opacity:0.82" fill="#635781" d="M 2107.5,5579.5 C 2107.18,5584.69 2107.51,5589.69 2108.5,5594.5C 2108.01,5595.47 2107.51,5596.47 2107,5597.5C 2106.18,5591.32 2106.35,5585.32 2107.5,5579.5 Z"/></g>
</svg>
